<?xml version="1.0" encoding="utf-8"?>
<!-- Generator: Adobe Illustrator 24.3.0, SVG Export Plug-In . SVG Version: 6.00 Build 0)  -->
<svg version="1.1" id="Layer_1" xmlns="http://www.w3.org/2000/svg" xmlns:xlink="http://www.w3.org/1999/xlink" x="0px" y="0px"
	 viewBox="0 0 595.28 841.89" style="enable-background:new 0 0 595.28 841.89;" xml:space="preserve">
<style type="text/css">
	.st0{fill:#860101;}
	.st1{fill:url(#SVGID_1_);}
	.st2{fill:#ED1C24;}
	.st3{fill:url(#SVGID_2_);}
	.st4{fill:url(#SVGID_3_);}
	.st5{fill:url(#SVGID_4_);}
	.st6{fill:url(#SVGID_5_);}
	.st7{fill:url(#SVGID_6_);}
	.st8{fill:url(#SVGID_7_);}
	.st9{fill:#FFFFFF;}
	.st10{fill:#790000;}
	.st11{fill:url(#SVGID_8_);}
	.st12{fill:#003D68;}
	.st13{fill:url(#SVGID_9_);}
	.st14{fill:#007DC5;}
	.st15{fill:#005826;}
	.st16{fill:url(#SVGID_10_);}
	.st17{fill:#00A651;}
	.st18{fill:url(#SVGID_11_);}
	.st19{fill:url(#SVGID_12_);}
	.st20{fill:url(#SVGID_13_);}
	.st21{fill:url(#SVGID_14_);}
	.st22{fill:url(#SVGID_15_);}
	.st23{fill:url(#SVGID_16_);}
</style>
<g>
	<path class="st0" d="M414.95,570H185.05c-19.36,0-35.05-15.69-35.05-35.05V305.05c0-19.36,15.69-35.05,35.05-35.05h229.91
		c19.36,0,35.05,15.69,35.05,35.05v229.91C450,554.31,434.31,570,414.95,570z"/>
	<linearGradient id="SVGID_1_" gradientUnits="userSpaceOnUse" x1="299.9998" y1="566.0986" x2="299.9998" y2="273.9017">
		<stop  offset="0" style="stop-color:#ED1C24"/>
		<stop  offset="0.5302" style="stop-color:#BA141A"/>
		<stop  offset="1" style="stop-color:#ED1C24"/>
	</linearGradient>
	<path class="st1" d="M153.9,534.95V305.05c0-17.2,13.94-31.15,31.15-31.15h229.91c17.2,0,31.15,13.94,31.15,31.15v229.91
		c0,17.2-13.94,31.15-31.15,31.15H185.05C167.85,566.1,153.9,552.15,153.9,534.95z"/>
	<path class="st2" d="M157.8,534.95V305.05c0-15.05,12.2-27.24,27.24-27.24h229.91c15.05,0,27.24,12.2,27.24,27.24v229.91
		c0,15.05-12.2,27.24-27.24,27.24H185.05C170,562.2,157.8,550,157.8,534.95z"/>
	
		<radialGradient id="SVGID_2_" cx="297.3559" cy="272.338" r="75.8831" gradientTransform="matrix(6.917351e-03 0.9753 -1.8815 0.0133 807.7825 -17.6143)" gradientUnits="userSpaceOnUse">
		<stop  offset="0" style="stop-color:#FFFFFF"/>
		<stop  offset="1" style="stop-color:#ED1C24"/>
	</radialGradient>
	<path class="st3" d="M187.04,276.44c-12.75,0-23.69,7.83-28.29,18.94c17.04,31.81,73.5,55.17,140.53,55.17
		c68.07,0,125.24-24.09,141.3-56.66c-4.93-10.31-15.46-17.45-27.63-17.45H187.04z"/>
	
		<radialGradient id="SVGID_3_" cx="177.7217" cy="84.2602" r="75.8831" gradientTransform="matrix(-6.917351e-03 -0.9753 1.8815 -0.0133 144.5823 737.9767)" gradientUnits="userSpaceOnUse">
		<stop  offset="0" style="stop-color:#BA141A"/>
		<stop  offset="1" style="stop-color:#ED1C24"/>
	</radialGradient>
	<path class="st4" d="M412.29,563.12c12.75,0,23.69-7.83,28.29-18.94c-17.04-31.81-73.5-55.17-140.53-55.17
		c-68.07,0-125.24,24.09-141.3,56.66c4.93,10.31,15.46,17.45,27.63,17.45H412.29z"/>
</g>
<path class="st0" d="M428.23,352.94c0-22.43-18.25-40.68-40.68-40.68c-21.02,0-38.36,16.02-40.47,36.49
	c-14.81-5.49-31.2-8.38-47.71-8.38c-16.55,0-32.98,2.9-47.82,8.42c-2.09-20.49-19.44-36.53-40.47-36.53
	c-22.43,0-40.68,18.25-40.68,40.68c0,17.48,11.39,33.03,27.66,38.54c-6.47,11.19-9.74,23.14-9.74,35.6
	c0,47.81,49.82,86.71,111.06,86.71c61.24,0,111.06-38.9,111.06-86.71c0-12.46-3.28-24.43-9.76-35.63
	C416.87,385.9,428.23,370.37,428.23,352.94z"/>
<linearGradient id="SVGID_4_" gradientUnits="userSpaceOnUse" x1="255.1081" y1="330.5876" x2="346.6635" y2="332.9453">
	<stop  offset="0" style="stop-color:#748A96"/>
	<stop  offset="0.2613" style="stop-color:#C7EAFB"/>
	<stop  offset="0.4749" style="stop-color:#FFFFFF"/>
	<stop  offset="0.7462" style="stop-color:#C7EAFB"/>
	<stop  offset="1" style="stop-color:#748A96"/>
</linearGradient>
<path class="st5" d="M299.36,322.88c16.94,0,35.76,3.9,50.7,9.9l-5.96,6.73c-0.05-0.03-1.63-1.17-1.69-1.19
	c-13.17-5.46-28.06-8.34-43.06-8.34c-15.04,0-29.97,2.9-43.16,8.38c-0.09,0.04-1.82,1.05-1.9,1.1l-5.55-6.55
	C263.73,326.86,282.36,322.88,299.36,322.88z"/>
<linearGradient id="SVGID_5_" gradientUnits="userSpaceOnUse" x1="210.087" y1="299.0632" x2="202.5232" y2="366.0023">
	<stop  offset="0" style="stop-color:#748A96"/>
	<stop  offset="0.2613" style="stop-color:#C7EAFB"/>
	<stop  offset="0.4749" style="stop-color:#FFFFFF"/>
	<stop  offset="0.7462" style="stop-color:#C7EAFB"/>
	<stop  offset="1" style="stop-color:#748A96"/>
</linearGradient>
<path class="st6" d="M176.01,329.84c0-19.33,15.73-35.06,35.06-35.06c11.82,0,22.29,5.89,28.64,14.88
	c-4.26-1.99-8.88-3.02-13.67-3.02c-18.42,0-33.4,14.98-33.4,33.4c0,9.18,3.83,17.71,10.09,23.85
	C187.2,360.09,176.01,345.92,176.01,329.84z"/>
<linearGradient id="SVGID_6_" gradientUnits="userSpaceOnUse" x1="297.9154" y1="372.0791" x2="303.9664" y2="505.201">
	<stop  offset="0" style="stop-color:#748A96"/>
	<stop  offset="0.2613" style="stop-color:#C7EAFB"/>
	<stop  offset="0.4749" style="stop-color:#FFFFFF"/>
	<stop  offset="0.7462" style="stop-color:#C7EAFB"/>
	<stop  offset="1" style="stop-color:#748A96"/>
</linearGradient>
<path class="st7" d="M404.81,403.97c0,44.71-47.3,81.09-105.44,81.09c-58.14,0-105.44-36.38-105.44-81.09
	c0-12.39,3.55-24.27,10.54-35.33l8.35,2.04c0.97,0.42,1.96,0.8,2.98,1.13c-5.49,9.35-8.27,19.35-8.27,29.77
	c0,39.49,41.2,71.62,91.83,71.62s91.83-32.13,91.83-71.62c0-10.43-2.79-20.44-8.29-29.8c0.99-0.32,1.95-0.69,2.89-1.1l8.47-2.07
	C401.25,379.69,404.81,391.57,404.81,403.97z"/>
<linearGradient id="SVGID_7_" gradientUnits="userSpaceOnUse" x1="388.2643" y1="295.3186" x2="395.8281" y2="366.0396">
	<stop  offset="0" style="stop-color:#748A96"/>
	<stop  offset="0.2613" style="stop-color:#C7EAFB"/>
	<stop  offset="0.4749" style="stop-color:#FFFFFF"/>
	<stop  offset="0.7462" style="stop-color:#C7EAFB"/>
	<stop  offset="1" style="stop-color:#748A96"/>
</linearGradient>
<path class="st8" d="M395.87,363.89c6.26-6.14,10.1-14.68,10.1-23.85c0-18.42-14.98-33.4-33.4-33.4c-4.79,0-9.39,1.01-13.63,2.96
	c6.36-8.96,16.81-14.82,28.6-14.82c19.33,0,35.06,15.73,35.06,35.06C422.61,345.91,411.41,360.1,395.87,363.89z"/>
<path d="M252.83,480.87c-0.18,0-0.36-0.04-0.54-0.11c-0.72-0.3-1.05-1.12-0.75-1.84l6.28-15.02c0.3-0.72,1.12-1.05,1.84-0.75
	c0.72,0.3,1.05,1.12,0.75,1.84L254.13,480C253.9,480.54,253.38,480.87,252.83,480.87z"/>
<path d="M282.87,487.69c-0.09,0-0.17-0.01-0.26-0.02c-0.76-0.14-1.26-0.88-1.12-1.64l2.73-14.47c0.14-0.76,0.88-1.27,1.64-1.12
	c0.76,0.14,1.26,0.88,1.12,1.64l-2.73,14.47C284.12,487.22,283.53,487.69,282.87,487.69z"/>
<path d="M348.94,480.87c-0.55,0-1.07-0.32-1.3-0.86l-6.28-15.02c-0.3-0.72,0.04-1.54,0.75-1.84c0.71-0.3,1.54,0.04,1.84,0.75
	l6.28,15.02c0.3,0.72-0.04,1.54-0.75,1.84C349.31,480.83,349.12,480.87,348.94,480.87z"/>
<path d="M318.63,487.69c-0.66,0-1.25-0.47-1.38-1.14l-2.73-14.47c-0.14-0.76,0.36-1.5,1.12-1.64c0.76-0.14,1.5,0.36,1.64,1.12
	l2.73,14.47c0.14,0.76-0.36,1.5-1.12,1.64C318.81,487.68,318.72,487.69,318.63,487.69z"/>
<path d="M195.51,348.78c-0.14,0-0.29-0.02-0.44-0.07l-19.58-6.38c-0.74-0.24-1.14-1.03-0.9-1.77c0.24-0.74,1.03-1.14,1.77-0.9
	l19.58,6.38c0.74,0.24,1.14,1.03,0.9,1.77C196.65,348.4,196.1,348.78,195.51,348.78z"/>
<path d="M202.88,320.2c-0.2,0-0.41-0.04-0.6-0.14l-21.81-10.38c-0.7-0.33-1-1.17-0.67-1.87c0.33-0.7,1.17-1,1.87-0.67l21.81,10.38
	c0.7,0.33,1,1.17,0.67,1.87C203.91,319.9,203.41,320.2,202.88,320.2z"/>
<path d="M230.41,310.42c-0.35,0-0.71-0.13-0.98-0.4l-16.85-16.4c-0.56-0.54-0.57-1.43-0.03-1.99c0.54-0.56,1.43-0.57,1.99-0.03
	l16.85,16.4c0.56,0.54,0.57,1.43,0.03,1.99C231.14,310.28,230.78,310.42,230.41,310.42z"/>
<path d="M208.09,399.2c-0.06,0-0.13,0-0.2-0.01l-15.82-2.21c-0.77-0.11-1.3-0.82-1.2-1.59c0.11-0.77,0.82-1.31,1.59-1.2l15.82,2.21
	c0.77,0.11,1.3,0.82,1.2,1.59C209.38,398.69,208.78,399.2,208.09,399.2z"/>
<path d="M200.22,437.37c-0.54,0-1.06-0.32-1.29-0.84c-0.31-0.71,0.02-1.54,0.73-1.85l16.7-7.27c0.71-0.31,1.54,0.01,1.85,0.73
	c0.31,0.71-0.02,1.54-0.73,1.85l-16.7,7.27C200.6,437.33,200.41,437.37,200.22,437.37z"/>
<path d="M222.91,463.41c-0.32,0-0.65-0.11-0.92-0.34c-0.59-0.51-0.65-1.39-0.15-1.98l11.4-13.24c0.51-0.59,1.39-0.65,1.98-0.15
	c0.59,0.51,0.65,1.39,0.15,1.98l-11.4,13.24C223.69,463.24,223.3,463.41,222.91,463.41z"/>
<path d="M402.76,348.78c-0.6,0-1.15-0.38-1.34-0.98c-0.24-0.74,0.17-1.53,0.91-1.77l20.31-6.47c0.75-0.24,1.53,0.17,1.77,0.91
	c0.24,0.74-0.17,1.53-0.91,1.77l-20.31,6.47C403.05,348.76,402.9,348.78,402.76,348.78z"/>
<path d="M395.39,320.2c-0.53,0-1.03-0.3-1.27-0.8c-0.33-0.7-0.04-1.54,0.67-1.87l21.81-10.38c0.7-0.33,1.54-0.04,1.87,0.67
	c0.33,0.7,0.04,1.54-0.67,1.87L396,320.06C395.8,320.15,395.59,320.2,395.39,320.2z"/>
<path d="M367.86,310.42c-0.37,0-0.73-0.14-1.01-0.43c-0.54-0.56-0.53-1.45,0.03-1.99l16.85-16.4c0.56-0.54,1.45-0.53,1.99,0.03
	s0.53,1.45-0.03,1.99l-16.85,16.4C368.57,310.29,368.22,310.42,367.86,310.42z"/>
<path d="M390.19,399.2c-0.69,0-1.29-0.51-1.39-1.21c-0.11-0.77,0.43-1.48,1.2-1.59l15.82-2.21c0.78-0.1,1.48,0.43,1.59,1.2
	c0.11,0.77-0.43,1.48-1.2,1.59l-15.82,2.21C390.32,399.19,390.25,399.2,390.19,399.2z"/>
<path d="M398.06,437.37c-0.19,0-0.39-0.04-0.57-0.12l-15.65-7.02c-0.71-0.32-1.02-1.15-0.71-1.86c0.32-0.71,1.15-1.03,1.86-0.71
	l15.65,7.02c0.71,0.32,1.02,1.15,0.71,1.86C399.11,437.06,398.59,437.37,398.06,437.37z"/>
<path d="M375.09,464.77c-0.38,0-0.76-0.16-1.04-0.46l-11.43-12.64c-0.52-0.58-0.48-1.46,0.1-1.98c0.57-0.52,1.46-0.48,1.98,0.1
	l11.43,12.64c0.52,0.58,0.48,1.46-0.1,1.98C375.77,464.65,375.43,464.77,375.09,464.77z"/>
<path d="M283.4,334.41c-0.63,0-1.21-0.43-1.36-1.07l-2.74-11.29c-0.18-0.75,0.28-1.51,1.03-1.7c0.76-0.18,1.51,0.28,1.7,1.03
	l2.74,11.29c0.18,0.75-0.28,1.51-1.03,1.7C283.62,334.39,283.5,334.41,283.4,334.41z"/>
<path d="M315.55,334.75c-0.1,0-0.19-0.01-0.29-0.03c-0.76-0.16-1.24-0.91-1.08-1.67l2.39-11.29c0.16-0.76,0.9-1.25,1.67-1.08
	c0.76,0.16,1.24,0.91,1.08,1.67l-2.39,11.29C316.78,334.29,316.2,334.75,315.55,334.75z"/>
<path class="st9" d="M378.75,368.07c-0.75,0.17-1.37,0.69-1.67,1.4c-0.29,0.71-0.21,1.52,0.21,2.17c6.11,9.35,9.21,19.43,9.21,29.95
	c0,36.91-39.1,66.93-87.15,66.93c-48.05,0-87.15-30.03-87.15-66.93c0-10.51,3.09-20.58,9.2-29.93c0.42-0.65,0.5-1.46,0.21-2.17
	c-0.29-0.71-0.92-1.24-1.67-1.4c-13.1-2.84-22.61-14.64-22.61-28.06c0-15.83,12.88-28.72,28.72-28.72c6.59,0,12.8,2.28,18,6.59
	c1.35,3.73,2.09,7.74,2.09,11.93l-0.01,0.54c-0.01,0.6,0.21,1.17,0.6,1.6c0.01,0.01,0.02,0.03,0.03,0.04l8.67,10.22
	c0.24,0.28,0.57,0.44,0.91,0.48c0.24,0.08,0.5,0.14,0.76,0.14c0.3,0,0.6-0.06,0.9-0.18c12.63-5.25,26.93-8.02,41.36-8.02
	c14.39,0,28.67,2.76,41.27,7.98c1.15,0.48,2.44-0.03,2.99-1.13l8.09-9.41c0,0,0,0,0,0c0.5-0.45,0.8-1.08,0.79-1.76l-0.01-0.5
	c0-4.21,0.75-8.26,2.12-12c5.2-4.32,11.25-6.52,17.97-6.52c15.83,0,28.72,12.88,28.72,28.72
	C401.28,353.41,391.81,365.21,378.75,368.07z"/>
<path d="M257.09,343.79c-1.29,0-2.51-0.76-3.03-2.02c-0.69-1.67,0.1-3.59,1.77-4.29c13.31-5.53,28.35-8.45,43.52-8.45
	c15.13,0,30.14,2.91,43.42,8.41c1.67,0.69,2.47,2.61,1.77,4.28c-0.69,1.67-2.62,2.47-4.28,1.77c-12.49-5.18-26.64-7.91-40.91-7.91
	c-14.31,0-28.49,2.75-41,7.95C257.94,343.71,257.51,343.79,257.09,343.79z"/>
<path d="M299.35,474.14c-51.15,0-92.77-32.55-92.77-72.55c0-10.22,2.63-20.04,7.83-29.25c-13.39-4.84-22.7-17.78-22.7-32.3
	c0-18.93,15.4-34.34,34.34-34.34c8,0,15.53,2.78,21.79,8.05c1.39,1.17,1.56,3.23,0.4,4.62c-1.17,1.39-3.24,1.56-4.62,0.4
	c-5.13-4.32-11.04-6.51-17.56-6.51c-15.32,0-27.78,12.46-27.78,27.78c0,12.98,9.2,24.4,21.87,27.14c1.05,0.23,1.93,0.96,2.34,1.96
	c0.41,1,0.3,2.13-0.29,3.04c-6,9.19-9.05,19.09-9.05,29.42c0,36.39,38.67,65.99,86.21,65.99c47.54,0,86.21-29.61,86.21-65.99
	c0-10.33-3.05-20.24-9.06-29.43c-0.59-0.9-0.7-2.04-0.29-3.03s1.28-1.73,2.33-1.96c12.63-2.77,21.79-14.18,21.79-27.12
	c0-15.32-12.46-27.78-27.78-27.78c-6.57,0-12.48,2.16-17.54,6.43c-1.38,1.17-3.45,0.99-4.62-0.4c-1.17-1.39-0.99-3.45,0.4-4.62
	c6.19-5.22,13.72-7.97,21.77-7.97c18.93,0,34.34,15.4,34.34,34.34c0,14.48-9.28,27.41-22.63,32.27c5.21,9.22,7.85,19.05,7.85,29.28
	C392.12,441.59,350.51,474.14,299.35,474.14z"/>
<g>
	<path class="st9" d="M245.12,316.97c-0.23-0.2-0.47-0.39-0.7-0.58l1.17-1.47c0.25,0.2,0.5,0.4,0.74,0.61L245.12,316.97z"/>
	<path class="st9" d="M216.39,370.54c-0.61-0.19-1.22-0.41-1.82-0.64l0.67-1.75c0.56,0.22,1.13,0.42,1.71,0.6L216.39,370.54z
		 M212.79,369.15c-0.59-0.27-1.16-0.55-1.73-0.85l0.88-1.66c0.53,0.28,1.08,0.55,1.63,0.8L212.79,369.15z M209.39,367.35
		c-0.55-0.34-1.09-0.69-1.61-1.05l1.07-1.54c0.5,0.35,1,0.68,1.52,0.99L209.39,367.35z M206.23,365.15c-0.5-0.4-1-0.81-1.48-1.24
		l1.25-1.4c0.45,0.4,0.92,0.79,1.39,1.17L206.23,365.15z M203.36,362.58c-0.45-0.46-0.89-0.93-1.32-1.41l1.41-1.24
		c0.4,0.45,0.81,0.9,1.24,1.32L203.36,362.58z M200.81,359.69c-0.4-0.51-0.78-1.02-1.14-1.56l1.54-1.06c0.34,0.5,0.7,0.99,1.07,1.46
		L200.81,359.69z M198.62,356.52c-0.33-0.55-0.65-1.11-0.95-1.68l1.66-0.87c0.28,0.54,0.58,1.07,0.89,1.58L198.62,356.52z
		 M196.84,353.1c-0.26-0.59-0.51-1.18-0.74-1.78l1.75-0.66c0.21,0.57,0.45,1.13,0.69,1.68L196.84,353.1z M195.47,349.49
		c-0.19-0.61-0.36-1.23-0.51-1.86l1.82-0.44c0.14,0.59,0.31,1.17,0.48,1.75L195.47,349.49z M194.56,345.74
		c-0.11-0.63-0.21-1.27-0.28-1.91l1.86-0.22c0.07,0.6,0.16,1.2,0.27,1.79L194.56,345.74z M194.11,341.92
		c-0.04-0.62-0.05-1.25-0.05-1.88l1.87-0.04v0.04c0,0.6,0.02,1.19,0.05,1.77L194.11,341.92z M195.98,338.18l-1.87-0.11
		c0.04-0.65,0.1-1.29,0.17-1.92l1.86,0.23C196.07,336.97,196.02,337.57,195.98,338.18z M196.42,334.58l-1.84-0.34
		c0.12-0.63,0.25-1.26,0.4-1.88l1.82,0.45C196.66,333.39,196.53,333.98,196.42,334.58z M197.29,331.06l-1.79-0.56
		c0.19-0.62,0.4-1.22,0.63-1.82l1.75,0.67C197.67,329.91,197.47,330.48,197.29,331.06z M198.57,327.67l-1.71-0.77
		c0.26-0.59,0.55-1.16,0.84-1.73l1.66,0.87C199.09,326.57,198.82,327.12,198.57,327.67z M200.26,324.46l-1.6-0.97
		c0.33-0.55,0.68-1.09,1.05-1.62l1.54,1.06C200.9,323.44,200.57,323.94,200.26,324.46z M202.32,321.48l-1.47-1.16
		c0.4-0.51,0.81-1,1.23-1.48l1.4,1.24C203.08,320.54,202.69,321,202.32,321.48z M204.72,318.76l-1.33-1.32
		c0.45-0.46,0.92-0.9,1.4-1.32l1.25,1.4C205.59,317.92,205.15,318.33,204.72,318.76z M207.43,316.35l-1.16-1.47
		c0.5-0.4,1.02-0.78,1.55-1.15l1.07,1.54C208.4,315.62,207.91,315.98,207.43,316.35z M242.96,315.3c-0.5-0.35-1-0.68-1.51-1
		l0.99-1.59c0.55,0.34,1.08,0.69,1.61,1.07L242.96,315.3z M210.42,314.28l-0.97-1.6c0.55-0.33,1.11-0.65,1.68-0.95l0.88,1.66
		C211.46,313.67,210.93,313.97,210.42,314.28z M239.88,313.39c-0.53-0.29-1.07-0.56-1.62-0.81l0.79-1.7
		c0.58,0.27,1.16,0.56,1.72,0.86L239.88,313.39z M213.63,312.58l-0.77-1.71c0.58-0.27,1.18-0.51,1.78-0.74l0.67,1.75
		C214.74,312.1,214.18,312.33,213.63,312.58z M236.59,311.87c-0.56-0.22-1.13-0.42-1.71-0.6l0.57-1.79c0.62,0.2,1.22,0.41,1.82,0.64
		L236.59,311.87z M217.02,311.29l-0.56-1.79c0.61-0.19,1.23-0.37,1.86-0.52l0.45,1.82C218.18,310.94,217.6,311.11,217.02,311.29z
		 M233.14,310.77c-0.58-0.14-1.17-0.27-1.77-0.38l0.34-1.84c0.64,0.12,1.27,0.25,1.89,0.41L233.14,310.77z M220.54,310.42
		l-0.34-1.84c0.63-0.12,1.26-0.21,1.9-0.29l0.23,1.86C221.73,310.21,221.13,310.31,220.54,310.42z M229.58,310.12
		c-0.6-0.07-1.2-0.12-1.81-0.16l0.11-1.87c0.65,0.04,1.29,0.09,1.92,0.17L229.58,310.12z M224.14,309.97l-0.12-1.87
		c0.64-0.04,1.28-0.06,1.92-0.06l0.01,1.87C225.35,309.91,224.74,309.93,224.14,309.97z"/>
	<path class="st9" d="M219.73,371.67l-0.65-0.41c-0.26-0.06-0.52-0.12-0.78-0.18l0.07-0.27l-0.23-0.14
		c0.14-0.22,0.28-0.45,0.43-0.67l0.18-0.74c0.29,0.07,0.59,0.14,0.89,0.21l1.33,0.29l-0.74,1.14
		C220.06,371.15,219.89,371.41,219.73,371.67z"/>
	<path class="st9" d="M299.35,471.8l-1,0l0.02-1.87l0.98,0l0.89,0l0.01,1.87L299.35,471.8z M302.16,471.76l-0.04-1.87
		c0.62-0.01,1.25-0.03,1.87-0.06l0.08,1.87C303.42,471.73,302.79,471.75,302.16,471.76z M296.46,471.76
		c-0.63-0.02-1.27-0.04-1.9-0.06l0.08-1.87c0.62,0.02,1.24,0.04,1.87,0.06L296.46,471.76z M305.95,471.61l-0.11-1.87
		c0.62-0.03,1.25-0.07,1.87-0.12l0.13,1.87C307.22,471.54,306.59,471.58,305.95,471.61z M292.66,471.61
		c-0.63-0.04-1.27-0.08-1.9-0.12l0.14-1.87c0.62,0.05,1.24,0.09,1.86,0.12L292.66,471.61z M309.74,471.34l-0.17-1.87
		c0.62-0.06,1.24-0.12,1.86-0.18l0.2,1.86C311,471.22,310.37,471.28,309.74,471.34z M288.87,471.33c-0.63-0.06-1.26-0.12-1.89-0.19
		l0.2-1.86c0.62,0.07,1.24,0.13,1.86,0.18L288.87,471.33z M313.52,470.94l-0.23-1.86c0.62-0.08,1.24-0.16,1.85-0.24l0.26,1.86
		C314.78,470.78,314.15,470.87,313.52,470.94z M285.09,470.93c-0.63-0.08-1.26-0.16-1.88-0.25l0.26-1.86
		c0.62,0.09,1.23,0.17,1.85,0.24L285.09,470.93z M317.28,470.42l-0.29-1.85c0.62-0.1,1.23-0.2,1.84-0.3l0.32,1.85
		C318.54,470.22,317.91,470.32,317.28,470.42z M281.33,470.4c-0.63-0.1-1.25-0.2-1.88-0.31l0.32-1.85c0.61,0.11,1.23,0.21,1.84,0.3
		L281.33,470.4z M321.03,469.77l-0.35-1.84c0.61-0.12,1.22-0.24,1.83-0.37l0.38,1.83C322.28,469.53,321.65,469.65,321.03,469.77z
		 M277.59,469.75c-0.62-0.12-1.25-0.24-1.86-0.37l0.39-1.83c0.61,0.13,1.22,0.25,1.83,0.37L277.59,469.75z M324.75,468.99
		l-0.42-1.83c0.61-0.14,1.22-0.28,1.82-0.43l0.44,1.82C325.99,468.71,325.37,468.85,324.75,468.99z M273.87,468.97
		c-0.62-0.14-1.24-0.29-1.85-0.44l0.45-1.82c0.6,0.15,1.21,0.29,1.82,0.43L273.87,468.97z M328.44,468.09l-0.48-1.81
		c0.6-0.16,1.2-0.32,1.8-0.49l0.51,1.8C329.67,467.76,329.06,467.93,328.44,468.09z M270.17,468.06c-0.61-0.16-1.23-0.33-1.83-0.5
		l0.51-1.8c0.6,0.17,1.2,0.33,1.8,0.49L270.17,468.06z M332.1,467.05l-0.54-1.79c0.6-0.18,1.19-0.37,1.78-0.56l0.57,1.78
		C333.32,466.68,332.71,466.87,332.1,467.05z M266.52,467.03c-0.61-0.18-1.21-0.37-1.82-0.57l0.58-1.78
		c0.59,0.19,1.18,0.38,1.78,0.56L266.52,467.03z M335.72,465.89l-0.61-1.77c0.59-0.2,1.18-0.41,1.76-0.62l0.64,1.76
		C336.92,465.48,336.32,465.69,335.72,465.89z M262.9,465.86c-0.6-0.21-1.2-0.42-1.8-0.63l0.64-1.76c0.58,0.21,1.17,0.42,1.76,0.62
		L262.9,465.86z M339.3,464.6l-0.67-1.75c0.58-0.22,1.16-0.45,1.74-0.68l0.7,1.74C340.48,464.14,339.89,464.37,339.3,464.6z
		 M259.32,464.56c-0.59-0.23-1.18-0.46-1.77-0.7l0.7-1.74c0.58,0.23,1.15,0.46,1.74,0.68L259.32,464.56z M342.83,463.17l-0.73-1.72
		c0.57-0.25,1.14-0.5,1.71-0.75l0.77,1.71C343.99,462.67,343.41,462.92,342.83,463.17z M255.8,463.13c-0.58-0.25-1.17-0.5-1.74-0.76
		l0.77-1.71c0.57,0.25,1.14,0.5,1.71,0.75L255.8,463.13z M346.3,461.62l-0.8-1.7c0.56-0.27,1.12-0.54,1.68-0.81l0.83,1.68
		C347.44,461.07,346.87,461.34,346.3,461.62z M252.33,461.57c-0.57-0.27-1.15-0.55-1.71-0.83l0.83-1.68
		c0.56,0.28,1.11,0.55,1.68,0.82L252.33,461.57z M349.71,459.92l-0.87-1.66c0.55-0.29,1.1-0.58,1.65-0.88l0.9,1.64
		C350.83,459.33,350.27,459.63,349.71,459.92z M248.92,459.88c-0.56-0.29-1.12-0.59-1.68-0.9l0.9-1.64c0.54,0.3,1.09,0.59,1.65,0.88
		L248.92,459.88z M353.05,458.1l-0.93-1.62c0.54-0.31,1.08-0.63,1.61-0.94l0.96,1.61C354.15,457.46,353.6,457.78,353.05,458.1z
		 M245.58,458.05c-0.55-0.32-1.1-0.64-1.64-0.96l0.97-1.61c0.53,0.32,1.07,0.64,1.61,0.95L245.58,458.05z M356.31,456.13l-1-1.59
		c0.53-0.33,1.05-0.67,1.57-1.01l1.03,1.56C357.38,455.45,356.85,455.79,356.31,456.13z M242.32,456.08
		c-0.54-0.34-1.07-0.68-1.6-1.03l1.03-1.56c0.52,0.34,1.04,0.68,1.57,1.01L242.32,456.08z M359.49,454.03l-1.06-1.54
		c0.51-0.35,1.02-0.71,1.52-1.08l1.1,1.52C360.53,453.3,360.01,453.67,359.49,454.03z M239.14,453.98c-0.52-0.36-1.04-0.73-1.55-1.1
		l1.1-1.52c0.5,0.36,1.01,0.72,1.52,1.08L239.14,453.98z M362.57,451.8l-1.13-1.49c0.5-0.38,0.99-0.76,1.47-1.14l1.17,1.47
		C363.58,451.02,363.08,451.41,362.57,451.8z M236.06,451.74c-0.51-0.39-1.01-0.78-1.5-1.17l1.17-1.46
		c0.48,0.39,0.97,0.77,1.47,1.15L236.06,451.74z M365.56,449.42l-1.2-1.44c0.48-0.4,0.95-0.8,1.42-1.21l1.23,1.41
		C366.53,448.6,366.04,449.02,365.56,449.42z M233.08,449.37c-0.49-0.41-0.97-0.82-1.45-1.24l1.24-1.41
		c0.47,0.41,0.94,0.81,1.42,1.21L233.08,449.37z M368.43,446.92l-1.27-1.38c0.46-0.42,0.91-0.85,1.36-1.28l1.3,1.35
		C369.36,446.05,368.9,446.48,368.43,446.92z M230.21,446.85c-0.47-0.43-0.93-0.87-1.39-1.31l1.3-1.35c0.45,0.43,0.9,0.86,1.35,1.28
		L230.21,446.85z M371.17,444.27l-1.33-1.32c0.44-0.44,0.87-0.89,1.29-1.34l1.37,1.28C372.06,443.35,371.62,443.81,371.17,444.27z
		 M227.47,444.2c-0.45-0.46-0.89-0.91-1.32-1.38l1.37-1.28c0.42,0.45,0.85,0.9,1.29,1.34L227.47,444.2z M373.78,441.48l-1.4-1.25
		c0.41-0.46,0.82-0.93,1.22-1.41l1.43,1.21C374.62,440.53,374.21,441.01,373.78,441.48z M224.86,441.41
		c-0.42-0.48-0.84-0.96-1.25-1.44l1.43-1.21c0.4,0.47,0.8,0.94,1.22,1.41L224.86,441.41z M376.25,438.57l-1.46-1.17
		c0.39-0.49,0.77-0.97,1.14-1.47l1.5,1.13C377.04,437.56,376.65,438.07,376.25,438.57z M222.4,438.49c-0.4-0.5-0.79-1-1.17-1.51
		l1.5-1.13c0.37,0.49,0.75,0.98,1.14,1.47L222.4,438.49z M378.55,435.52l-1.53-1.09c0.36-0.5,0.71-1.01,1.06-1.53l1.56,1.04
		C379.28,434.47,378.92,435,378.55,435.52z M220.1,435.44c-0.37-0.52-0.73-1.05-1.08-1.57l1.56-1.04c0.34,0.51,0.69,1.02,1.05,1.53
		L220.1,435.44z M380.68,432.34l-1.59-1c0.33-0.53,0.65-1.05,0.96-1.59l1.62,0.95C381.35,431.25,381.02,431.8,380.68,432.34z
		 M217.98,432.26c-0.34-0.54-0.67-1.09-0.99-1.64l1.62-0.95c0.31,0.53,0.63,1.06,0.96,1.59L217.98,432.26z M382.61,429.04l-1.64-0.9
		c0.3-0.55,0.59-1.09,0.87-1.65l1.67,0.85C383.22,427.92,382.92,428.48,382.61,429.04z M216.05,428.96
		c-0.31-0.56-0.6-1.12-0.89-1.69l1.67-0.85c0.28,0.55,0.57,1.1,0.86,1.64L216.05,428.96z M384.35,425.62l-1.7-0.79
		c0.26-0.56,0.52-1.13,0.76-1.7l1.72,0.74C384.88,424.46,384.62,425.04,384.35,425.62z M214.32,425.55
		c-0.27-0.58-0.53-1.16-0.78-1.75l1.72-0.74c0.24,0.57,0.5,1.13,0.76,1.69L214.32,425.55z M385.87,422.1l-1.74-0.68
		c0.23-0.58,0.44-1.16,0.65-1.74l1.77,0.63C386.32,420.91,386.1,421.5,385.87,422.1z M212.82,422.03c-0.23-0.59-0.45-1.19-0.67-1.79
		l1.77-0.63c0.21,0.58,0.42,1.16,0.65,1.73L212.82,422.03z M387.15,418.49l-1.79-0.57c0.19-0.59,0.36-1.18,0.53-1.77l1.8,0.51
		C387.52,417.27,387.34,417.88,387.15,418.49z M211.54,418.43c-0.19-0.61-0.38-1.22-0.55-1.83l1.8-0.51
		c0.17,0.59,0.34,1.19,0.53,1.77L211.54,418.43z M388.18,414.81l-1.82-0.45c0.15-0.6,0.28-1.2,0.41-1.8l1.83,0.39
		C388.47,413.57,388.33,414.19,388.18,414.81z M210.51,414.75c-0.15-0.62-0.29-1.24-0.42-1.87l1.83-0.38
		c0.13,0.6,0.26,1.21,0.41,1.81L210.51,414.75z M388.97,411.07l-1.85-0.32c0.11-0.61,0.2-1.22,0.29-1.83l1.86,0.26
		C389.17,409.81,389.08,410.44,388.97,411.07z M209.73,410.99c-0.11-0.63-0.21-1.26-0.29-1.9l1.86-0.25
		c0.08,0.61,0.18,1.23,0.28,1.83L209.73,410.99z M389.49,407.27l-1.86-0.19c0.06-0.61,0.12-1.23,0.16-1.84l1.87,0.12
		C389.61,406,389.56,406.64,389.49,407.27z M209.21,407.19c-0.06-0.63-0.12-1.27-0.16-1.91l1.87-0.12c0.04,0.62,0.09,1.23,0.16,1.85
		L209.21,407.19z M389.75,403.45l-1.87-0.06c0.02-0.6,0.03-1.2,0.03-1.8l1.87-0.06C389.78,402.21,389.77,402.83,389.75,403.45z
		 M208.95,403.36c-0.02-0.59-0.03-1.18-0.03-1.78v-0.14h1.87v0.14c0,0.57,0.01,1.15,0.03,1.72L208.95,403.36z M387.88,399.68
		c-0.02-0.62-0.05-1.23-0.1-1.85l1.87-0.13c0.04,0.64,0.08,1.27,0.1,1.91L387.88,399.68z M210.84,399.6l-1.87-0.07
		c0.02-0.64,0.06-1.28,0.1-1.91l1.87,0.13C210.89,398.37,210.86,398.98,210.84,399.6z M387.62,395.99
		c-0.07-0.62-0.14-1.23-0.23-1.84l1.86-0.26c0.09,0.63,0.17,1.27,0.23,1.9L387.62,395.99z M211.1,395.91l-1.86-0.2
		c0.07-0.64,0.15-1.27,0.24-1.9l1.85,0.26C211.24,394.68,211.17,395.29,211.1,395.91z M387.1,392.32c-0.11-0.61-0.22-1.21-0.35-1.82
		l1.83-0.39c0.13,0.62,0.25,1.25,0.37,1.88L387.1,392.32z M211.62,392.24l-1.84-0.33c0.11-0.63,0.23-1.26,0.37-1.88l1.83,0.39
		C211.85,391.03,211.73,391.63,211.62,392.24z M386.33,388.69c-0.15-0.6-0.31-1.2-0.48-1.79l1.8-0.51c0.17,0.61,0.34,1.23,0.49,1.85
		L386.33,388.69z M212.4,388.62l-1.82-0.45c0.15-0.62,0.32-1.24,0.5-1.85l1.8,0.51C212.71,387.42,212.55,388.02,212.4,388.62z
		 M385.32,385.13c-0.19-0.59-0.39-1.17-0.59-1.75l1.76-0.63c0.22,0.6,0.42,1.21,0.62,1.81L385.32,385.13z M213.41,385.06l-1.78-0.58
		c0.2-0.61,0.4-1.21,0.62-1.81l1.76,0.63C213.8,383.88,213.6,384.47,213.41,385.06z M384.07,381.64c-0.23-0.57-0.46-1.14-0.71-1.71
		l1.72-0.75c0.25,0.59,0.5,1.18,0.73,1.77L384.07,381.64z M214.67,381.57l-1.74-0.69c0.23-0.59,0.48-1.18,0.74-1.77l1.72,0.75
		C215.13,380.42,214.9,380.99,214.67,381.57z M382.6,378.24c-0.26-0.56-0.54-1.11-0.82-1.67l1.67-0.85
		c0.29,0.57,0.57,1.14,0.84,1.72L382.6,378.24z M216.15,378.17l-1.69-0.8c0.27-0.58,0.55-1.15,0.85-1.72l1.67,0.85
		C216.68,377.05,216.41,377.61,216.15,378.17z M380.91,374.93c-0.3-0.54-0.6-1.08-0.92-1.61l1.62-0.95c0.32,0.55,0.64,1.1,0.95,1.66
		L380.91,374.93z M217.84,374.86l-1.64-0.9c0.31-0.56,0.62-1.11,0.95-1.66l1.61,0.96C218.44,373.79,218.14,374.32,217.84,374.86z"/>
	<path class="st9" d="M378.97,371.65c-0.17-0.26-0.33-0.52-0.5-0.78l-0.74-1.14l1.32-0.29c0.3-0.06,0.59-0.13,0.89-0.21l0.19,0.74
		c0.14,0.22,0.29,0.44,0.43,0.67l-0.22,0.14l0.07,0.27c-0.26,0.06-0.52,0.13-0.78,0.19L378.97,371.65z"/>
	<path class="st9" d="M382.25,370.53l-0.57-1.79c0.58-0.18,1.15-0.38,1.71-0.6l0.68,1.75C383.47,370.12,382.86,370.33,382.25,370.53
		z M385.84,369.14l-0.78-1.7c0.55-0.25,1.09-0.52,1.63-0.8l0.88,1.65C387.01,368.59,386.43,368.88,385.84,369.14z M389.24,367.33
		l-0.98-1.6c0.52-0.32,1.02-0.65,1.52-0.99l1.07,1.54C390.33,366.65,389.79,367,389.24,367.33z M392.4,365.13l-1.16-1.47
		c0.47-0.37,0.94-0.76,1.39-1.17l1.25,1.39C393.4,364.32,392.91,364.73,392.4,365.13z M395.27,362.57l-1.33-1.32
		c0.43-0.43,0.84-0.87,1.24-1.32l1.41,1.24C396.16,361.64,395.72,362.11,395.27,362.57z M397.82,359.68l-1.48-1.15
		c0.37-0.48,0.73-0.96,1.07-1.46l1.54,1.06C398.59,358.66,398.21,359.17,397.82,359.68z M400,356.51l-1.6-0.97
		c0.31-0.52,0.61-1.04,0.89-1.58l1.66,0.87C400.64,355.4,400.33,355.96,400,356.51z M401.78,353.1l-1.71-0.77
		c0.25-0.55,0.48-1.11,0.69-1.67l1.75,0.66C402.28,351.92,402.04,352.52,401.78,353.1z M403.14,349.5l-1.79-0.55
		c0.18-0.57,0.34-1.16,0.48-1.75l1.82,0.44C403.5,348.27,403.33,348.89,403.14,349.5z M404.05,345.76l-1.84-0.33
		c0.11-0.59,0.2-1.19,0.27-1.79l1.86,0.22C404.26,344.5,404.16,345.13,404.05,345.76z M404.5,341.94l-1.87-0.11
		c0.04-0.59,0.05-1.19,0.05-1.8l1.87-0.02C404.56,340.67,404.54,341.31,404.5,341.94z M402.63,338.21c-0.04-0.61-0.09-1.21-0.16-1.8
		l1.86-0.22c0.08,0.63,0.13,1.27,0.17,1.92L402.63,338.21z M402.2,334.61c-0.11-0.6-0.23-1.19-0.38-1.77l1.82-0.45
		c0.15,0.62,0.29,1.25,0.4,1.88L402.2,334.61z M401.34,331.09c-0.18-0.58-0.38-1.15-0.59-1.72l1.75-0.66
		c0.23,0.6,0.44,1.21,0.63,1.82L401.34,331.09z M400.05,327.7c-0.25-0.55-0.51-1.1-0.79-1.63l1.66-0.87
		c0.3,0.57,0.58,1.15,0.84,1.73L400.05,327.7z M398.37,324.49c-0.31-0.52-0.64-1.03-0.98-1.53l1.54-1.06
		c0.36,0.53,0.71,1.07,1.04,1.62L398.37,324.49z M396.31,321.5c-0.37-0.48-0.76-0.94-1.16-1.4l1.4-1.24
		c0.42,0.48,0.83,0.98,1.23,1.48L396.31,321.5z M393.91,318.78c-0.43-0.43-0.87-0.84-1.32-1.25l1.25-1.4
		c0.48,0.43,0.95,0.87,1.4,1.32L393.91,318.78z M391.21,316.37c-0.47-0.37-0.96-0.73-1.46-1.08l1.07-1.54
		c0.53,0.37,1.04,0.75,1.54,1.15L391.21,316.37z M355.71,315.2l-1.08-1.53c0.53-0.37,1.06-0.72,1.61-1.06l0.98,1.6
		C356.71,314.52,356.21,314.85,355.71,315.2z M388.23,314.3c-0.51-0.31-1.04-0.61-1.57-0.9l0.88-1.65c0.57,0.3,1.12,0.62,1.67,0.95
		L388.23,314.3z M358.8,313.3l-0.88-1.65c0.57-0.3,1.14-0.59,1.73-0.85l0.78,1.71C359.87,312.75,359.33,313.02,358.8,313.3z
		 M385.04,312.61c-0.55-0.25-1.1-0.48-1.67-0.7l0.67-1.75c0.6,0.23,1.19,0.48,1.77,0.74L385.04,312.61z M362.09,311.8l-0.67-1.75
		c0.6-0.23,1.21-0.44,1.82-0.63l0.55,1.79C363.23,311.39,362.66,311.59,362.09,311.8z M381.66,311.31
		c-0.57-0.18-1.16-0.35-1.74-0.49l0.46-1.82c0.62,0.16,1.24,0.33,1.85,0.52L381.66,311.31z M365.55,310.73l-0.44-1.82
		c0.62-0.15,1.25-0.28,1.89-0.39l0.32,1.84C366.72,310.47,366.13,310.59,365.55,310.73z M378.15,310.43
		c-0.59-0.11-1.19-0.2-1.79-0.28l0.23-1.86c0.64,0.08,1.27,0.18,1.9,0.3L378.15,310.43z M369.12,310.1l-0.21-1.86
		c0.63-0.07,1.27-0.12,1.92-0.16l0.1,1.87C370.32,309.99,369.71,310.04,369.12,310.1z M374.55,309.98c-0.6-0.04-1.21-0.06-1.81-0.06
		l0.01-1.87c0.64,0,1.29,0.03,1.92,0.07L374.55,309.98z"/>
	<path class="st9" d="M353.51,316.89l-1.21-1.43c0.25-0.21,0.49-0.41,0.74-0.61l1.17,1.46C353.98,316.51,353.75,316.7,353.51,316.89
		z"/>
</g>
<path d="M299.36,490.68c-61.24,0-111.06-38.9-111.06-86.71c0-12.45,3.28-24.41,9.74-35.6c-16.26-5.52-27.66-21.06-27.66-38.54
	c0-22.43,18.25-40.68,40.68-40.68c21.03,0,38.39,16.04,40.47,36.53c14.84-5.52,31.27-8.42,47.82-8.42c16.5,0,32.9,2.89,47.71,8.38
	c2.11-20.47,19.45-36.49,40.47-36.49c22.43,0,40.68,18.25,40.68,40.68c0,17.43-11.35,32.96-27.56,38.51
	c6.48,11.2,9.76,23.17,9.76,35.63C410.43,451.79,360.6,490.68,299.36,490.68z M211.07,295.71c-18.82,0-34.13,15.31-34.13,34.13
	c0,15.95,11.3,29.97,26.87,33.35c1.05,0.23,1.93,0.96,2.34,1.96c0.41,1,0.3,2.13-0.29,3.04c-7.3,11.18-11,23.22-11,35.79
	c0,44.2,46.88,80.15,104.5,80.15s104.5-35.96,104.5-80.15c0-12.58-3.71-24.63-11.02-35.82c-0.59-0.9-0.7-2.04-0.29-3.03
	s1.28-1.73,2.33-1.96c15.51-3.41,26.78-17.42,26.78-33.32c0-18.82-15.31-34.13-34.13-34.13c-18.82,0-34.13,15.31-34.13,34.13
	l0.01,0.5c0.01,1.1-0.53,2.14-1.44,2.75c-0.91,0.62-2.08,0.73-3.09,0.31c-15.12-6.27-32.25-9.58-49.53-9.58
	c-17.32,0-34.49,3.33-49.64,9.62c-1.02,0.42-2.19,0.31-3.1-0.31c-0.91-0.62-1.45-1.66-1.44-2.76l0.01-0.53
	C245.2,311.02,229.89,295.71,211.07,295.71z"/>
<path d="M379.25,372.31c-0.88,0-1.67-0.6-1.89-1.49c-0.26-1.05,0.38-2.1,1.43-2.36l16.34-4c1.05-0.25,2.1,0.38,2.36,1.43
	c0.26,1.05-0.38,2.1-1.43,2.36l-16.34,4C379.56,372.29,379.41,372.31,379.25,372.31z"/>
<path d="M219.44,372.33c-0.15,0-0.31-0.02-0.46-0.06l-16.32-3.99c-1.05-0.26-1.69-1.31-1.43-2.36c0.26-1.05,1.31-1.69,2.36-1.43
	l16.32,3.99c1.05,0.26,1.69,1.31,1.43,2.36C221.12,371.73,220.32,372.33,219.44,372.33z"/>
<path d="M255.64,343.12c-0.4,0-0.79-0.17-1.07-0.5l-8.67-10.22c-0.5-0.59-0.43-1.48,0.16-1.98c0.59-0.5,1.48-0.43,1.98,0.16
	l8.67,10.22c0.5,0.59,0.43,1.48-0.16,1.98C256.29,343.01,255.97,343.12,255.64,343.12z"/>
<path d="M343,342.95c-0.32,0-0.65-0.11-0.92-0.34c-0.59-0.51-0.66-1.39-0.15-1.98l8.59-9.99c0.51-0.59,1.39-0.66,1.98-0.15
	s0.66,1.39,0.15,1.98l-8.59,9.99C343.79,342.79,343.39,342.95,343,342.95z"/>
<g>
	<path class="st9" d="M341.16,341.34l-0.86-0.35l0.7-1.74c0.29,0.12,0.58,0.24,0.88,0.36L341.16,341.34z"/>
	<path class="st9" d="M260.05,340.34l-0.67-1.75c0.59-0.23,1.18-0.45,1.78-0.66l0.64,1.76C261.21,339.9,260.63,340.12,260.05,340.34
		z M338.57,340.31c-0.58-0.22-1.16-0.44-1.75-0.65l0.64-1.76c0.6,0.22,1.19,0.44,1.78,0.66L338.57,340.31z M263.56,339.07l-0.6-1.77
		c0.6-0.2,1.2-0.4,1.8-0.6l0.57,1.78C264.74,338.68,264.15,338.87,263.56,339.07z M335.07,339.04c-0.59-0.2-1.18-0.4-1.77-0.58
		l0.57-1.78c0.6,0.19,1.2,0.39,1.8,0.6L335.07,339.04z M267.11,337.93l-0.54-1.79c0.6-0.18,1.21-0.36,1.82-0.53l0.51,1.8
		C268.3,337.57,267.71,337.75,267.11,337.93z M331.52,337.91c-0.59-0.18-1.19-0.35-1.79-0.52l0.51-1.8
		c0.61,0.17,1.22,0.35,1.82,0.53L331.52,337.91z M270.71,336.91l-0.48-1.81c0.61-0.16,1.23-0.32,1.84-0.47l0.45,1.82
		C271.91,336.6,271.31,336.75,270.71,336.91z M327.93,336.89c-0.6-0.16-1.2-0.31-1.81-0.46l0.45-1.82c0.62,0.15,1.23,0.31,1.84,0.47
		L327.93,336.89z M274.33,336.02l-0.42-1.83c0.62-0.14,1.23-0.27,1.86-0.4l0.38,1.83C275.54,335.75,274.94,335.88,274.33,336.02z
		 M324.31,336.01c-0.6-0.14-1.21-0.27-1.82-0.4l0.38-1.83c0.62,0.13,1.24,0.26,1.85,0.4L324.31,336.01z M277.99,335.26l-0.35-1.84
		c0.62-0.12,1.24-0.23,1.87-0.34l0.32,1.85C279.21,335.03,278.6,335.14,277.99,335.26z M320.66,335.25
		c-0.61-0.12-1.22-0.23-1.83-0.33l0.32-1.85c0.62,0.11,1.25,0.22,1.87,0.34L320.66,335.25z M281.67,334.62l-0.29-1.85
		c0.62-0.1,1.25-0.19,1.88-0.28l0.26,1.86C282.9,334.43,282.28,334.52,281.67,334.62z M316.99,334.61c-0.61-0.1-1.23-0.19-1.84-0.27
		l0.26-1.86c0.63,0.09,1.25,0.18,1.87,0.28L316.99,334.61z M285.36,334.1l-0.23-1.86c0.63-0.08,1.25-0.15,1.89-0.22l0.2,1.86
		C286.6,333.96,285.98,334.03,285.36,334.1z M313.29,334.1c-0.62-0.07-1.23-0.15-1.85-0.21l0.2-1.86c0.63,0.07,1.26,0.14,1.88,0.21
		L313.29,334.1z M289.08,333.71l-0.17-1.87c0.63-0.06,1.26-0.11,1.89-0.15l0.14,1.87C290.32,333.6,289.7,333.65,289.08,333.71z
		 M309.59,333.7c-0.62-0.05-1.24-0.1-1.86-0.15l0.14-1.87c0.63,0.05,1.26,0.1,1.89,0.15L309.59,333.7z M292.81,333.44l-0.11-1.87
		c0.63-0.04,1.26-0.07,1.9-0.09l0.08,1.87C294.05,333.37,293.43,333.4,292.81,333.44z M305.87,333.43
		c-0.62-0.03-1.24-0.06-1.86-0.09l0.07-1.87c0.63,0.02,1.26,0.06,1.89,0.09L305.87,333.43z M296.54,333.29l-0.04-1.87
		c0.63-0.02,1.26-0.03,1.9-0.03l0.01,1.87C297.78,333.26,297.16,333.27,296.54,333.29z M302.14,333.29
		c-0.62-0.02-1.24-0.02-1.87-0.03l0.02-1.87c0.63,0.01,1.26,0.02,1.89,0.03L302.14,333.29z"/>
	<polygon class="st9" points="257.45,341.38 256.73,339.65 257.61,339.29 258.31,341.03 	"/>
</g>
<g>
	<path class="st9" d="M351.1,331.78l-2.17-0.9l0.27-0.68l0-0.04c0-0.11-0.01-0.22-0.01-0.32l0-0.42l0.32,0l0.11-0.28l0.7,0.29
		l0.73,0.01l0,0.39L351.1,331.78z"/>
	<path class="st9" d="M251.41,330.24l-0.68-1.75c0.58-0.23,1.17-0.45,1.75-0.67l0.65,1.76C252.56,329.8,251.98,330.02,251.41,330.24
		z M347.22,330.2c-0.57-0.22-1.15-0.44-1.72-0.65l0.65-1.76c0.59,0.22,1.17,0.44,1.75,0.66L347.22,330.2z M254.87,328.96l-0.63-1.77
		c0.59-0.21,1.18-0.41,1.77-0.61l0.6,1.78C256.04,328.55,255.45,328.75,254.87,328.96z M343.76,328.92c-0.58-0.2-1.16-0.41-1.74-0.6
		l0.6-1.78c0.59,0.2,1.18,0.4,1.77,0.61L343.76,328.92z M258.38,327.77l-0.57-1.78c0.59-0.19,1.19-0.38,1.79-0.56l0.55,1.79
		C259.55,327.4,258.96,327.58,258.38,327.77z M340.26,327.74c-0.58-0.19-1.17-0.37-1.76-0.55l0.55-1.79
		c0.6,0.18,1.19,0.37,1.79,0.56L340.26,327.74z M261.92,326.69l-0.52-1.8c0.6-0.17,1.2-0.34,1.81-0.51l0.49,1.81
		C263.1,326.35,262.51,326.52,261.92,326.69z M336.73,326.67c-0.59-0.17-1.18-0.34-1.78-0.5l0.49-1.81c0.6,0.17,1.21,0.33,1.8,0.51
		L336.73,326.67z M265.49,325.72l-0.47-1.81c0.6-0.16,1.21-0.31,1.82-0.46l0.44,1.82C266.68,325.41,266.08,325.56,265.49,325.72z
		 M333.17,325.7c-0.59-0.15-1.19-0.3-1.79-0.45l0.44-1.82c0.61,0.15,1.21,0.3,1.82,0.45L333.17,325.7z M269.08,324.84l-0.42-1.83
		c0.61-0.14,1.22-0.27,1.83-0.4l0.39,1.83C270.28,324.57,269.68,324.71,269.08,324.84z M329.58,324.83c-0.6-0.14-1.2-0.27-1.8-0.4
		l0.39-1.83c0.61,0.13,1.22,0.26,1.83,0.4L329.58,324.83z M272.7,324.07l-0.36-1.84c0.61-0.12,1.23-0.24,1.84-0.35l0.34,1.84
		C273.91,323.83,273.3,323.95,272.7,324.07z M325.97,324.06c-0.6-0.12-1.21-0.23-1.81-0.35l0.34-1.84c0.61,0.11,1.23,0.23,1.84,0.35
		L325.97,324.06z M276.34,323.4l-0.31-1.85c0.62-0.1,1.23-0.21,1.85-0.3l0.29,1.85C277.56,323.2,276.95,323.3,276.34,323.4z
		 M322.34,323.39c-0.6-0.1-1.21-0.2-1.82-0.3l0.29-1.85c0.62,0.1,1.23,0.2,1.85,0.3L322.34,323.39z M280,322.83l-0.26-1.86
		c0.62-0.09,1.24-0.17,1.86-0.25l0.24,1.86C281.22,322.66,280.61,322.75,280,322.83z M318.7,322.83c-0.61-0.09-1.22-0.17-1.83-0.25
		l0.24-1.86c0.62,0.08,1.24,0.16,1.86,0.25L318.7,322.83z M283.67,322.36l-0.21-1.86c0.62-0.07,1.24-0.14,1.87-0.2l0.19,1.86
		C284.9,322.23,284.28,322.29,283.67,322.36z M315.03,322.36c-0.61-0.07-1.22-0.13-1.83-0.2l0.19-1.86c0.62,0.06,1.24,0.13,1.86,0.2
		L315.03,322.36z M287.35,321.99l-0.16-1.87c0.62-0.05,1.25-0.1,1.87-0.15l0.14,1.87C288.58,321.89,287.97,321.94,287.35,321.99z
		 M311.36,321.99c-0.61-0.05-1.22-0.1-1.84-0.15l0.13-1.87c0.62,0.04,1.25,0.09,1.87,0.15L311.36,321.99z M307.68,321.73
		c-0.61-0.04-1.23-0.07-1.84-0.1l0.09-1.87c0.62,0.03,1.25,0.06,1.87,0.1L307.68,321.73z M291.05,321.72l-0.11-1.87
		c0.62-0.04,1.25-0.07,1.87-0.1l0.09,1.87C292.28,321.66,291.66,321.69,291.05,321.72z M303.99,321.55
		c-0.61-0.02-1.23-0.04-1.84-0.05l0.04-1.87c0.62,0.01,1.25,0.03,1.87,0.05L303.99,321.55z M294.74,321.55l-0.06-1.87
		c0.62-0.02,1.25-0.04,1.88-0.05l0.04,1.87C295.98,321.52,295.36,321.53,294.74,321.55z M300.3,321.48l-0.94,0l-0.92,0l-0.01-1.87
		l0.93,0l0.95,0L300.3,321.48z"/>
	<path class="st9" d="M247.51,331.83l0.03-1.69c0-0.1,0.01-0.2,0.01-0.3l0-0.35l0.73-0.01l0.7-0.29l0.11,0.28l0.33,0l0,0.36
		c0,0.12,0,0.24-0.01,0.36l0,0.05l0.28,0.68L247.51,331.83z"/>
	<path class="st9" d="M200.03,366.56c-0.61-0.18-1.22-0.38-1.82-0.6l0.63-1.76c0.57,0.2,1.15,0.39,1.73,0.57L200.03,366.56z
		 M196.42,365.27c-0.59-0.24-1.18-0.5-1.75-0.78l0.8-1.69c0.55,0.26,1.1,0.51,1.67,0.74L196.42,365.27z M192.95,363.63
		c-0.57-0.3-1.12-0.62-1.67-0.95l0.97-1.6c0.52,0.31,1.05,0.62,1.59,0.9L192.95,363.63z M189.66,361.64
		c-0.53-0.36-1.05-0.73-1.57-1.11l1.12-1.5c0.49,0.37,0.98,0.72,1.49,1.06L189.66,361.64z M186.59,359.34
		c-0.49-0.41-0.98-0.83-1.45-1.26l1.27-1.38c0.45,0.41,0.91,0.81,1.38,1.2L186.59,359.34z M183.76,356.74
		c-0.45-0.46-0.89-0.92-1.31-1.4l1.4-1.25c0.41,0.46,0.82,0.9,1.25,1.33L183.76,356.74z M181.2,353.87c-0.4-0.5-0.79-1.01-1.17-1.53
		l1.52-1.1c0.36,0.49,0.73,0.98,1.11,1.45L181.2,353.87z M178.94,350.76c-0.35-0.54-0.69-1.08-1.01-1.64l1.62-0.94
		c0.31,0.53,0.63,1.05,0.96,1.56L178.94,350.76z M177,347.44c-0.29-0.57-0.58-1.15-0.84-1.73l1.71-0.78c0.25,0.56,0.52,1.1,0.8,1.65
		L177,347.44z M175.41,343.94c-0.24-0.59-0.46-1.2-0.66-1.81l1.77-0.6c0.2,0.58,0.41,1.15,0.63,1.72L175.41,343.94z M174.17,340.29
		c-0.17-0.61-0.33-1.24-0.48-1.86l1.83-0.42c0.14,0.6,0.29,1.19,0.45,1.77L174.17,340.29z M173.32,336.55
		c-0.11-0.63-0.21-1.26-0.29-1.9l1.86-0.23c0.08,0.61,0.17,1.21,0.27,1.81L173.32,336.55z M172.84,332.74
		c-0.05-0.64-0.08-1.27-0.1-1.92l1.87-0.05c0.02,0.61,0.05,1.22,0.09,1.83L172.84,332.74z M174.62,328.94l-1.87-0.04
		c0.02-0.64,0.05-1.28,0.09-1.92l1.87,0.14C174.66,327.72,174.63,328.33,174.62,328.94z M247.48,327.66
		c-0.04-0.61-0.09-1.22-0.15-1.82l1.86-0.2c0.07,0.63,0.12,1.27,0.16,1.91L247.48,327.66z M174.88,325.3l-1.86-0.23
		c0.08-0.64,0.17-1.27,0.28-1.9l1.85,0.32C175.05,324.09,174.96,324.69,174.88,325.3z M247.08,324.03c-0.1-0.6-0.21-1.2-0.33-1.8
		l1.83-0.39c0.13,0.62,0.25,1.25,0.35,1.89L247.08,324.03z M175.52,321.7l-1.83-0.42c0.14-0.63,0.3-1.25,0.47-1.86l1.8,0.51
		C175.8,320.51,175.65,321.1,175.52,321.7z M246.32,320.45c-0.16-0.59-0.33-1.18-0.51-1.75l1.78-0.57c0.19,0.61,0.38,1.22,0.54,1.84
		L246.32,320.45z M176.51,318.18l-1.78-0.6c0.21-0.61,0.43-1.21,0.66-1.81l1.74,0.69C176.91,317.03,176.7,317.6,176.51,318.18z
		 M245.21,316.97c-0.22-0.57-0.45-1.14-0.69-1.7l1.72-0.75c0.26,0.59,0.5,1.18,0.72,1.78L245.21,316.97z M177.84,314.79l-1.71-0.77
		c0.26-0.58,0.54-1.16,0.84-1.73l1.67,0.86C178.36,313.68,178.1,314.23,177.84,314.79z M243.75,313.62
		c-0.27-0.55-0.56-1.09-0.86-1.62l1.63-0.92c0.31,0.56,0.61,1.13,0.9,1.7L243.75,313.62z M179.52,311.54l-1.62-0.94
		c0.32-0.55,0.66-1.1,1.01-1.63l1.57,1.02C180.14,310.5,179.82,311.02,179.52,311.54z M241.95,310.43
		c-0.33-0.52-0.66-1.02-1.01-1.52l1.53-1.08c0.37,0.52,0.72,1.06,1.07,1.6L241.95,310.43z M181.51,308.48l-1.52-1.1
		c0.38-0.52,0.76-1.03,1.16-1.53l1.46,1.17C182.23,307.5,181.86,307.99,181.51,308.48z M239.85,307.43
		c-0.38-0.48-0.76-0.95-1.16-1.41l1.42-1.22c0.42,0.48,0.82,0.98,1.22,1.48L239.85,307.43z M183.79,305.63l-1.4-1.24
		c0.43-0.48,0.86-0.95,1.31-1.4l1.34,1.31C184.61,304.73,184.2,305.18,183.79,305.63z M237.46,304.67
		c-0.42-0.44-0.85-0.87-1.29-1.29l1.29-1.36c0.46,0.44,0.92,0.89,1.36,1.36L237.46,304.67z M186.35,303.02l-1.27-1.38
		c0.47-0.43,0.95-0.86,1.45-1.27l1.2,1.44C187.26,302.21,186.8,302.61,186.35,303.02z M234.81,302.15c-0.46-0.4-0.94-0.78-1.42-1.16
		l1.15-1.48c0.51,0.39,1,0.8,1.49,1.21L234.81,302.15z M189.16,300.68l-1.13-1.5c0.51-0.39,1.03-0.76,1.56-1.12l1.05,1.55
		C190.15,299.96,189.65,300.31,189.16,300.68z M231.92,299.91c-0.5-0.35-1.01-0.68-1.52-1.01l0.99-1.59
		c0.54,0.34,1.08,0.69,1.6,1.06L231.92,299.91z M192.19,298.63l-0.97-1.6c0.55-0.33,1.1-0.65,1.67-0.96l0.89,1.65
		C193.24,298.01,192.71,298.31,192.19,298.63z M228.83,297.97c-0.53-0.3-1.07-0.58-1.62-0.85l0.83-1.68
		c0.57,0.28,1.14,0.58,1.7,0.89L228.83,297.97z M195.41,296.89l-0.81-1.69c0.58-0.28,1.17-0.54,1.76-0.78l0.72,1.73
		C196.52,296.38,195.96,296.63,195.41,296.89z M225.56,296.36c-0.56-0.24-1.12-0.47-1.69-0.68l0.66-1.75
		c0.6,0.22,1.19,0.46,1.78,0.72L225.56,296.36z M198.79,295.49l-0.63-1.76c0.6-0.22,1.21-0.42,1.83-0.6l0.54,1.79
		C199.94,295.09,199.36,295.28,198.79,295.49z M222.14,295.08c-0.58-0.18-1.16-0.35-1.75-0.51l0.48-1.81
		c0.62,0.16,1.24,0.34,1.85,0.54L222.14,295.08z M202.29,294.43l-0.45-1.82c0.62-0.15,1.25-0.29,1.88-0.41l0.36,1.84
		C203.48,294.15,202.88,294.29,202.29,294.43z M218.61,294.15c-0.59-0.12-1.19-0.24-1.8-0.33l0.29-1.85
		c0.64,0.1,1.27,0.22,1.89,0.35L218.61,294.15z M205.88,293.73l-0.26-1.85c0.63-0.09,1.27-0.16,1.91-0.22l0.17,1.87
		C207.09,293.58,206.48,293.65,205.88,293.73z M215,293.58c-0.6-0.06-1.21-0.11-1.82-0.15l0.1-1.87c0.64,0.04,1.28,0.09,1.92,0.16
		L215,293.58z M209.52,293.4l-0.08-1.87c0.54-0.02,1.09-0.03,1.63-0.03l0.29,0l-0.01,1.87l-0.28,0
		C210.55,293.37,210.03,293.38,209.52,293.4z"/>
	<path class="st9" d="M203.4,367.68l-0.65-0.41c-0.26-0.06-0.52-0.12-0.77-0.18l0.07-0.27l-0.23-0.15c0.14-0.22,0.28-0.44,0.43-0.66
		l0.18-0.74c0.29,0.07,0.59,0.14,0.89,0.2l1.33,0.29l-0.74,1.14C203.73,367.16,203.57,367.42,203.4,367.68z"/>
	<path class="st9" d="M299.36,488.34l-0.98,0l0.01-1.87l0.97,0l0.88,0l0.01,1.87L299.36,488.34z M302.14,488.32l-0.04-1.87
		c0.62-0.01,1.24-0.03,1.86-0.05l0.06,1.87C303.4,488.29,302.77,488.3,302.14,488.32z M296.5,488.31c-0.63-0.01-1.25-0.03-1.88-0.05
		l0.06-1.87c0.62,0.02,1.24,0.04,1.86,0.05L296.5,488.31z M305.9,488.19l-0.08-1.87c0.62-0.03,1.24-0.06,1.85-0.1l0.11,1.87
		C307.16,488.13,306.53,488.16,305.9,488.19z M292.74,488.19c-0.63-0.03-1.25-0.06-1.88-0.1l0.11-1.87c0.62,0.04,1.23,0.07,1.85,0.1
		L292.74,488.19z M309.66,487.97l-0.13-1.87c0.62-0.04,1.24-0.09,1.85-0.15l0.16,1.87C310.91,487.88,310.29,487.92,309.66,487.97z
		 M288.98,487.97c-0.63-0.05-1.25-0.1-1.87-0.15l0.16-1.87c0.62,0.05,1.23,0.1,1.85,0.15L288.98,487.97z M313.41,487.65l-0.19-1.86
		c0.62-0.06,1.23-0.13,1.85-0.2l0.21,1.86C314.66,487.52,314.04,487.58,313.41,487.65z M285.23,487.64
		c-0.62-0.06-1.25-0.13-1.87-0.2l0.21-1.86c0.61,0.07,1.23,0.14,1.85,0.2L285.23,487.64z M317.15,487.22l-0.24-1.86
		c0.62-0.08,1.23-0.16,1.84-0.25l0.26,1.86C318.4,487.06,317.77,487.14,317.15,487.22z M281.49,487.21
		c-0.62-0.08-1.25-0.17-1.87-0.25l0.26-1.86c0.61,0.09,1.22,0.17,1.84,0.25L281.49,487.21z M320.88,486.69l-0.29-1.85
		c0.61-0.09,1.22-0.19,1.83-0.3l0.31,1.85C322.12,486.49,321.5,486.59,320.88,486.69z M277.77,486.68c-0.62-0.1-1.24-0.2-1.86-0.3
		l0.31-1.85c0.61,0.1,1.22,0.2,1.83,0.3L277.77,486.68z M324.59,486.06l-0.34-1.84c0.61-0.11,1.22-0.23,1.82-0.35l0.37,1.84
		C325.83,485.83,325.21,485.95,324.59,486.06z M274.05,486.05c-0.62-0.12-1.23-0.23-1.85-0.36l0.37-1.84
		c0.61,0.12,1.21,0.24,1.82,0.35L274.05,486.05z M328.28,485.33l-0.39-1.83c0.61-0.13,1.21-0.26,1.81-0.4l0.41,1.83
		C329.51,485.06,328.9,485.2,328.28,485.33z M270.36,485.31c-0.62-0.13-1.23-0.27-1.84-0.41l0.42-1.83c0.6,0.14,1.21,0.27,1.81,0.4
		L270.36,485.31z M331.95,484.49l-0.44-1.82c0.6-0.15,1.2-0.3,1.8-0.45l0.47,1.81C333.17,484.19,332.56,484.34,331.95,484.49z
		 M266.69,484.47c-0.61-0.15-1.22-0.3-1.83-0.46l0.47-1.81c0.6,0.15,1.2,0.31,1.8,0.45L266.69,484.47z M335.6,483.55l-0.49-1.81
		c0.6-0.16,1.19-0.33,1.79-0.5l0.52,1.8C336.81,483.21,336.21,483.38,335.6,483.55z M263.05,483.52c-0.61-0.17-1.21-0.34-1.81-0.51
		l0.52-1.8c0.59,0.17,1.19,0.34,1.78,0.5L263.05,483.52z M339.21,482.5l-0.55-1.79c0.59-0.18,1.18-0.37,1.77-0.56l0.57,1.78
		C340.42,482.13,339.82,482.31,339.21,482.5z M259.43,482.47c-0.6-0.18-1.2-0.37-1.8-0.57l0.58-1.78c0.59,0.19,1.18,0.38,1.77,0.56
		L259.43,482.47z M342.8,481.34l-0.6-1.78c0.59-0.2,1.17-0.4,1.75-0.61l0.63,1.77C343.99,480.94,343.4,481.14,342.8,481.34z
		 M255.85,481.32c-0.6-0.2-1.19-0.41-1.78-0.62l0.63-1.77c0.58,0.21,1.17,0.41,1.75,0.61L255.85,481.32z M346.35,480.08l-0.65-1.76
		c0.58-0.22,1.16-0.44,1.73-0.66l0.68,1.75C347.53,479.64,346.94,479.86,346.35,480.08z M252.3,480.05
		c-0.59-0.22-1.18-0.44-1.76-0.67l0.68-1.74c0.57,0.22,1.15,0.45,1.73,0.66L252.3,480.05z M349.86,478.71l-0.71-1.73
		c0.57-0.23,1.14-0.47,1.71-0.71l0.73,1.72C351.02,478.24,350.44,478.48,349.86,478.71z M248.79,478.68
		c-0.58-0.24-1.16-0.48-1.74-0.73l0.74-1.72c0.57,0.24,1.14,0.48,1.71,0.71L248.79,478.68z M353.33,477.24l-0.76-1.71
		c0.57-0.25,1.13-0.51,1.69-0.77l0.79,1.7C354.47,476.72,353.9,476.98,353.33,477.24z M245.32,477.2c-0.58-0.26-1.15-0.52-1.72-0.78
		l0.79-1.7c0.56,0.26,1.12,0.52,1.69,0.77L245.32,477.2z M356.75,475.65l-0.81-1.69c0.56-0.27,1.11-0.54,1.66-0.82l0.84,1.67
		C357.88,475.1,357.31,475.38,356.75,475.65z M241.91,475.62c-0.57-0.27-1.13-0.55-1.69-0.83l0.84-1.67
		c0.55,0.28,1.1,0.55,1.66,0.82L241.91,475.62z M360.11,473.96l-0.87-1.66c0.55-0.29,1.09-0.58,1.64-0.87l0.89,1.65
		C361.23,473.37,360.67,473.67,360.11,473.96z M238.54,473.92c-0.56-0.29-1.11-0.59-1.66-0.89l0.9-1.64
		c0.54,0.29,1.09,0.59,1.63,0.87L238.54,473.92z M363.42,472.16l-0.92-1.63c0.54-0.3,1.07-0.61,1.6-0.93l0.95,1.61
		C364.52,471.53,363.97,471.85,363.42,472.16z M235.23,472.12c-0.55-0.31-1.09-0.63-1.63-0.95l0.95-1.61
		c0.53,0.31,1.06,0.62,1.6,0.93L235.23,472.12z M366.67,470.24l-0.98-1.6c0.53-0.32,1.05-0.65,1.57-0.98l1.01,1.58
		C367.74,469.58,367.21,469.91,366.67,470.24z M231.98,470.2c-0.54-0.33-1.07-0.66-1.6-1l1.01-1.58c0.52,0.33,1.04,0.66,1.57,0.98
		L231.98,470.2z M369.85,468.22l-1.03-1.56c0.52-0.34,1.03-0.69,1.54-1.04l1.06,1.54C370.9,467.52,370.38,467.87,369.85,468.22z
		 M228.8,468.17c-0.52-0.35-1.05-0.7-1.56-1.06l1.06-1.54c0.51,0.35,1.02,0.7,1.54,1.04L228.8,468.17z M372.96,466.08l-1.09-1.53
		c0.5-0.36,1-0.72,1.5-1.09l1.12,1.5C373.99,465.35,373.48,465.71,372.96,466.08z M225.7,466.03c-0.51-0.37-1.02-0.74-1.52-1.11
		l1.12-1.5c0.49,0.37,0.99,0.73,1.5,1.09L225.7,466.03z M375.99,463.83l-1.14-1.48c0.49-0.38,0.98-0.76,1.46-1.14l1.17,1.46
		C376.99,463.06,376.49,463.45,375.99,463.83z M222.67,463.78c-0.5-0.38-0.99-0.77-1.48-1.17l1.17-1.46
		c0.48,0.38,0.97,0.77,1.46,1.15L222.67,463.78z M378.94,461.47l-1.2-1.44c0.47-0.4,0.95-0.79,1.41-1.2l1.23,1.42
		C379.9,460.66,379.42,461.07,378.94,461.47z M219.72,461.42c-0.48-0.4-0.96-0.81-1.44-1.22l1.23-1.41c0.46,0.4,0.94,0.8,1.41,1.2
		L219.72,461.42z M381.79,459l-1.25-1.39c0.46-0.41,0.91-0.83,1.36-1.25l1.28,1.37C382.72,458.15,382.26,458.58,381.79,459z
		 M216.87,458.94c-0.47-0.42-0.93-0.85-1.39-1.28l1.28-1.37c0.45,0.42,0.9,0.84,1.36,1.25L216.87,458.94z M384.54,456.42l-1.31-1.34
		c0.44-0.43,0.88-0.87,1.31-1.31l1.34,1.31C385.44,455.53,385,455.98,384.54,456.42z M214.12,456.36c-0.45-0.44-0.9-0.89-1.34-1.34
		l1.34-1.31c0.43,0.44,0.87,0.88,1.31,1.31L214.12,456.36z M387.19,453.72l-1.36-1.29c0.42-0.45,0.84-0.9,1.25-1.36l1.39,1.25
		C388.05,452.8,387.62,453.27,387.19,453.72z M211.48,453.66c-0.43-0.46-0.86-0.92-1.28-1.39l1.39-1.25
		c0.41,0.46,0.83,0.91,1.25,1.36L211.48,453.66z M389.72,450.92l-1.42-1.22c0.4-0.47,0.8-0.94,1.19-1.41l1.44,1.19
		C390.54,449.96,390.14,450.44,389.72,450.92z M208.95,450.85c-0.41-0.48-0.82-0.96-1.22-1.45l1.45-1.19
		c0.39,0.47,0.79,0.95,1.19,1.41L208.95,450.85z M392.13,448.01l-1.47-1.16c0.38-0.49,0.76-0.97,1.13-1.46l1.49,1.13
		C392.91,447.01,392.52,447.51,392.13,448.01z M206.55,447.94c-0.39-0.5-0.78-1-1.15-1.5l1.5-1.12c0.37,0.49,0.74,0.98,1.13,1.46
		L206.55,447.94z M394.4,444.99l-1.52-1.09c0.36-0.5,0.71-1,1.06-1.51l1.55,1.06C395.13,443.96,394.77,444.47,394.4,444.99z
		 M204.27,444.92c-0.37-0.51-0.73-1.03-1.08-1.55l1.55-1.05c0.35,0.51,0.7,1.01,1.06,1.51L204.27,444.92z M396.54,441.86l-1.57-1.02
		c0.34-0.52,0.66-1.04,0.99-1.56l1.6,0.98C397.22,440.8,396.88,441.33,396.54,441.86z M202.14,441.79c-0.34-0.53-0.68-1.06-1.01-1.6
		l1.6-0.98c0.32,0.52,0.65,1.04,0.98,1.56L202.14,441.79z M398.52,438.64l-1.62-0.94c0.31-0.53,0.61-1.07,0.91-1.61l1.64,0.9
		C399.15,437.54,398.83,438.09,398.52,438.64z M200.17,438.56c-0.32-0.55-0.63-1.1-0.93-1.65l1.64-0.9c0.29,0.54,0.6,1.08,0.91,1.61
		L200.17,438.56z M400.34,435.32l-1.67-0.86c0.28-0.55,0.56-1.1,0.83-1.66l1.69,0.82C400.91,434.18,400.63,434.75,400.34,435.32z
		 M198.35,435.24c-0.29-0.56-0.57-1.13-0.84-1.7l1.69-0.81c0.27,0.55,0.54,1.1,0.82,1.65L198.35,435.24z M401.99,431.9l-1.71-0.77
		c0.25-0.56,0.5-1.13,0.74-1.7l1.73,0.73C402.51,430.74,402.25,431.32,401.99,431.9z M196.71,431.83c-0.26-0.58-0.51-1.16-0.75-1.74
		l1.73-0.72c0.24,0.57,0.48,1.13,0.74,1.69L196.71,431.83z M403.46,428.4l-1.75-0.68c0.22-0.57,0.44-1.15,0.65-1.73l1.76,0.63
		C403.91,427.22,403.69,427.81,403.46,428.4z M195.25,428.35c-0.23-0.59-0.45-1.18-0.66-1.77l1.76-0.63
		c0.21,0.58,0.42,1.15,0.64,1.72L195.25,428.35z M404.74,424.83l-1.78-0.58c0.19-0.58,0.37-1.17,0.55-1.76l1.79,0.54
		C405.12,423.63,404.93,424.23,404.74,424.83z M193.98,424.79c-0.2-0.6-0.38-1.2-0.56-1.81l1.8-0.53c0.17,0.59,0.36,1.17,0.55,1.76
		L193.98,424.79z M405.82,421.21l-1.81-0.48c0.16-0.59,0.31-1.19,0.45-1.78l1.82,0.43C406.13,419.99,405.98,420.6,405.82,421.21z
		 M192.9,421.16c-0.16-0.61-0.32-1.22-0.46-1.84l1.82-0.43c0.14,0.6,0.29,1.19,0.45,1.79L192.9,421.16z M406.69,417.53l-1.83-0.38
		c0.12-0.6,0.24-1.2,0.35-1.81l1.84,0.33C406.94,416.29,406.82,416.91,406.69,417.53z M192.03,417.47
		c-0.13-0.62-0.25-1.24-0.36-1.86l1.84-0.33c0.11,0.61,0.22,1.21,0.35,1.81L192.03,417.47z M407.36,413.8l-1.85-0.28
		c0.09-0.61,0.17-1.21,0.25-1.83l1.86,0.22C407.53,412.55,407.45,413.18,407.36,413.8z M191.36,413.73
		c-0.09-0.63-0.18-1.25-0.25-1.88l1.86-0.22c0.07,0.61,0.15,1.22,0.25,1.83L191.36,413.73z M407.81,410.04l-1.87-0.17
		c0.06-0.61,0.1-1.22,0.14-1.84l1.87,0.12C407.92,408.78,407.87,409.41,407.81,410.04z M190.91,409.97
		c-0.06-0.63-0.1-1.26-0.14-1.89l1.87-0.12c0.04,0.61,0.08,1.23,0.14,1.84L190.91,409.97z M408.05,406.25l-1.87-0.06
		c0.02-0.61,0.03-1.23,0.04-1.84l1.87,0.01C408.08,404.99,408.07,405.62,408.05,406.25z M190.68,406.18
		c-0.02-0.63-0.03-1.26-0.04-1.89l1.87-0.01c0,0.62,0.01,1.23,0.03,1.84L190.68,406.18z M406.2,402.5
		c-0.01-0.62-0.04-1.23-0.07-1.84l1.87-0.09c0.03,0.63,0.06,1.26,0.07,1.9L406.2,402.5z M192.54,402.44l-1.87-0.04
		c0.02-0.63,0.04-1.26,0.07-1.89l1.87,0.1C192.57,401.21,192.55,401.82,192.54,402.44z M406.01,398.82
		c-0.05-0.61-0.11-1.23-0.17-1.83l1.86-0.2c0.07,0.63,0.13,1.26,0.18,1.89L406.01,398.82z M192.73,398.76l-1.87-0.15
		c0.05-0.63,0.11-1.26,0.18-1.89l1.86,0.2C192.84,397.54,192.78,398.15,192.73,398.76z M405.61,395.16
		c-0.08-0.61-0.18-1.22-0.28-1.82l1.85-0.31c0.11,0.62,0.2,1.25,0.29,1.88L405.61,395.16z M193.13,395.1l-1.86-0.26
		c0.09-0.63,0.18-1.25,0.29-1.87l1.85,0.31C193.31,393.88,193.21,394.49,193.13,395.1z M405,391.52c-0.12-0.6-0.25-1.21-0.38-1.8
		l1.83-0.41c0.14,0.62,0.27,1.23,0.39,1.85L405,391.52z M193.74,391.47l-1.84-0.36c0.12-0.62,0.25-1.24,0.39-1.85l1.83,0.41
		C193.99,390.26,193.86,390.86,193.74,391.47z M404.19,387.93c-0.15-0.6-0.31-1.19-0.48-1.78l1.8-0.51c0.17,0.61,0.34,1.22,0.5,1.83
		L404.19,387.93z M194.55,387.87l-1.81-0.46c0.16-0.61,0.32-1.22,0.5-1.83l1.8,0.52C194.87,386.68,194.71,387.28,194.55,387.87z
		 M403.18,384.38c-0.18-0.59-0.38-1.17-0.58-1.75l1.77-0.61c0.21,0.6,0.4,1.2,0.59,1.8L403.18,384.38z M195.57,384.33l-1.79-0.57
		c0.19-0.6,0.39-1.2,0.6-1.8l1.77,0.62C195.95,383.16,195.76,383.74,195.57,384.33z M401.97,380.9c-0.22-0.57-0.44-1.15-0.67-1.72
		l1.73-0.71c0.24,0.59,0.47,1.17,0.69,1.76L401.97,380.9z M196.78,380.85l-1.75-0.66c0.22-0.59,0.45-1.18,0.69-1.76l1.73,0.71
		C197.22,379.7,197,380.27,196.78,380.85z M400.58,377.48c-0.25-0.56-0.5-1.12-0.76-1.68l1.69-0.8c0.27,0.57,0.53,1.15,0.79,1.72
		L400.58,377.48z M198.18,377.43l-1.71-0.75c0.25-0.58,0.52-1.15,0.79-1.72l1.69,0.8C198.68,376.31,198.42,376.87,198.18,377.43z
		 M399,374.15c-0.28-0.55-0.56-1.09-0.85-1.64l1.65-0.89c0.3,0.56,0.59,1.12,0.87,1.68L399,374.15z M199.75,374.09l-1.67-0.84
		c0.28-0.56,0.58-1.12,0.87-1.68l1.65,0.89C200.31,373,200.03,373.55,199.75,374.09z M397.26,370.9c-0.3-0.53-0.61-1.07-0.93-1.59
		l1.61-0.96c0.33,0.54,0.64,1.09,0.96,1.63L397.26,370.9z M201.5,370.84l-1.63-0.93c0.31-0.55,0.63-1.09,0.96-1.63l1.6,0.97
		C202.11,369.77,201.8,370.31,201.5,370.84z"/>
	<path class="st9" d="M395.31,367.65c-0.17-0.26-0.33-0.52-0.5-0.78l-0.74-1.13l1.32-0.29c0.3-0.07,0.6-0.14,0.89-0.21l0.18,0.74
		c0.14,0.22,0.29,0.44,0.43,0.66l-0.23,0.15l0.07,0.27c-0.26,0.06-0.51,0.12-0.77,0.18L395.31,367.65z"/>
	<path class="st9" d="M398.58,366.55l-0.54-1.79c0.59-0.18,1.17-0.37,1.74-0.57l0.63,1.76C399.81,366.17,399.2,366.37,398.58,366.55
		z M402.21,365.26l-0.72-1.73c0.56-0.23,1.12-0.48,1.67-0.74l0.8,1.69C403.39,364.76,402.8,365.02,402.21,365.26z M405.68,363.62
		l-0.89-1.65c0.54-0.29,1.07-0.59,1.59-0.91l0.97,1.61C406.8,362.99,406.24,363.31,405.68,363.62z M408.97,361.63l-1.05-1.55
		c0.5-0.34,1-0.69,1.49-1.06l1.12,1.5C410.02,360.9,409.5,361.27,408.97,361.63z M412.04,359.32l-1.2-1.44
		c0.47-0.39,0.93-0.79,1.38-1.2l1.27,1.38C413.01,358.49,412.53,358.92,412.04,359.32z M414.87,356.73l-1.33-1.32
		c0.43-0.43,0.84-0.88,1.25-1.33l1.4,1.25C415.75,355.8,415.31,356.27,414.87,356.73z M417.42,353.86l-1.46-1.18
		c0.38-0.47,0.75-0.96,1.11-1.45l1.52,1.1C418.21,352.85,417.82,353.36,417.42,353.86z M419.67,350.76l-1.57-1.02
		c0.33-0.51,0.65-1.03,0.96-1.55l1.62,0.95C420.36,349.68,420.02,350.22,419.67,350.76z M421.61,347.44l-1.66-0.86
		c0.28-0.54,0.55-1.09,0.8-1.64l1.71,0.78C422.18,346.3,421.9,346.88,421.61,347.44z M423.2,343.95l-1.74-0.69
		c0.22-0.56,0.43-1.13,0.63-1.71l1.77,0.6C423.65,342.76,423.43,343.36,423.2,343.95z M424.43,340.32l-1.8-0.51
		c0.17-0.58,0.32-1.17,0.45-1.77l1.83,0.42C424.76,339.09,424.61,339.71,424.43,340.32z M425.29,336.58l-1.85-0.33
		c0.11-0.6,0.2-1.2,0.27-1.81l1.86,0.24C425.5,335.32,425.4,335.95,425.29,336.58z M425.77,332.77l-1.87-0.14
		c0.05-0.6,0.08-1.21,0.09-1.82l1.87,0.05C425.85,331.5,425.82,332.14,425.77,332.77z M424,328.98c-0.01-0.61-0.04-1.22-0.09-1.83
		l1.87-0.13c0.04,0.63,0.08,1.27,0.09,1.92L424,328.98z M351.14,327.52l-1.87-0.12c0.04-0.64,0.1-1.28,0.17-1.91l1.86,0.21
		C351.24,326.3,351.18,326.91,351.14,327.52z M423.74,325.34c-0.07-0.61-0.16-1.21-0.27-1.8l1.85-0.32c0.11,0.63,0.2,1.26,0.28,1.9
		L423.74,325.34z M351.55,323.89l-1.85-0.31c0.1-0.63,0.22-1.26,0.36-1.89l1.83,0.4C351.77,322.69,351.65,323.29,351.55,323.89z
		 M423.11,321.74c-0.14-0.6-0.29-1.19-0.45-1.77l1.8-0.51c0.17,0.61,0.33,1.23,0.47,1.86L423.11,321.74z M352.33,320.32l-1.81-0.49
		c0.17-0.62,0.35-1.23,0.55-1.84l1.78,0.58C352.66,319.15,352.48,319.73,352.33,320.32z M422.12,318.23
		c-0.19-0.58-0.4-1.15-0.62-1.72l1.74-0.69c0.24,0.6,0.46,1.2,0.66,1.81L422.12,318.23z M353.45,316.85l-1.75-0.67
		c0.23-0.6,0.47-1.19,0.73-1.77l1.71,0.75C353.9,315.72,353.67,316.28,353.45,316.85z M420.79,314.82c-0.25-0.56-0.52-1.1-0.8-1.65
		l1.67-0.86c0.29,0.57,0.57,1.15,0.84,1.73L420.79,314.82z M354.92,313.51l-1.67-0.84c0.29-0.57,0.59-1.14,0.9-1.69l1.63,0.92
		C355.48,312.43,355.19,312.97,354.92,313.51z M419.11,311.57c-0.31-0.53-0.62-1.05-0.96-1.56l1.57-1.02
		c0.35,0.54,0.69,1.08,1.01,1.64L419.11,311.57z M356.71,310.34l-1.58-1.01c0.34-0.54,0.7-1.07,1.07-1.59l1.53,1.08
		C357.38,309.32,357.04,309.83,356.71,310.34z M417.12,308.5c-0.36-0.49-0.73-0.98-1.11-1.45l1.46-1.17c0.4,0.5,0.79,1.01,1.17,1.53
		L417.12,308.5z M358.82,307.36l-1.47-1.15c0.39-0.5,0.8-1,1.22-1.48l1.41,1.23C359.58,306.41,359.2,306.88,358.82,307.36z
		 M414.84,305.65c-0.4-0.46-0.82-0.9-1.25-1.34l1.34-1.31c0.45,0.46,0.88,0.93,1.31,1.41L414.84,305.65z M361.21,304.6l-1.35-1.3
		c0.44-0.46,0.9-0.91,1.36-1.35l1.29,1.36C362.07,303.73,361.63,304.16,361.21,304.6z M412.28,303.04c-0.45-0.41-0.9-0.81-1.37-1.2
		l1.2-1.44c0.49,0.41,0.97,0.83,1.44,1.27L412.28,303.04z M363.87,302.09l-1.22-1.42c0.49-0.42,0.98-0.82,1.49-1.21l1.14,1.48
		C364.8,301.32,364.33,301.7,363.87,302.09z M409.48,300.7c-0.49-0.37-0.98-0.72-1.49-1.06l1.05-1.55c0.53,0.36,1.05,0.73,1.56,1.12
		L409.48,300.7z M366.76,299.86l-1.07-1.54c0.53-0.37,1.06-0.72,1.61-1.06l0.99,1.59C367.77,299.18,367.26,299.52,366.76,299.86z
		 M406.46,298.65c-0.52-0.32-1.05-0.62-1.58-0.91l0.89-1.65c0.56,0.31,1.12,0.62,1.66,0.96L406.46,298.65z M369.86,297.93
		l-0.91-1.64c0.56-0.31,1.13-0.61,1.7-0.89l0.83,1.68C370.93,297.35,370.39,297.64,369.86,297.93z M403.26,296.92
		c-0.55-0.26-1.1-0.51-1.66-0.74l0.72-1.73c0.59,0.25,1.17,0.51,1.75,0.78L403.26,296.92z M373.14,296.32l-0.74-1.72
		c0.59-0.25,1.18-0.49,1.79-0.72l0.65,1.76C374.27,295.85,373.7,296.08,373.14,296.32z M399.9,295.51c-0.57-0.21-1.15-0.4-1.73-0.57
		l0.54-1.79c0.61,0.19,1.22,0.39,1.82,0.6L399.9,295.51z M376.57,295.04l-0.56-1.79c0.61-0.19,1.22-0.37,1.85-0.53l0.47,1.81
		C377.74,294.69,377.15,294.86,376.57,295.04z M396.4,294.45c-0.59-0.15-1.18-0.28-1.78-0.4l0.36-1.84
		c0.63,0.12,1.26,0.26,1.88,0.42L396.4,294.45z M380.11,294.13l-0.38-1.83c0.63-0.13,1.25-0.24,1.89-0.34l0.29,1.85
		C381.3,293.89,380.7,294,380.11,294.13z M392.82,293.75c-0.6-0.09-1.2-0.16-1.81-0.22l0.18-1.87c0.64,0.06,1.28,0.14,1.91,0.23
		L392.82,293.75z M383.71,293.57l-0.19-1.86c0.63-0.07,1.27-0.12,1.91-0.15l0.1,1.87C384.92,293.46,384.32,293.5,383.71,293.57z
		 M389.19,293.4c-0.55-0.02-1.09-0.04-1.65-0.04h-0.18l-0.02-1.87l0.19,0c0.58,0,1.16,0.01,1.73,0.04L389.19,293.4z"/>
</g>
<circle class="st10" cx="259.93" cy="372.28" r="30.44"/>
<path class="st2" d="M259.93,400.77c-15.71,0-28.49-12.78-28.49-28.49s12.78-28.49,28.49-28.49s28.49,12.78,28.49,28.49
	S275.64,400.77,259.93,400.77z"/>
<linearGradient id="SVGID_8_" gradientUnits="userSpaceOnUse" x1="259.9332" y1="400.7715" x2="259.9332" y2="343.7934">
	<stop  offset="0" style="stop-color:#ED1C24"/>
	<stop  offset="0.5302" style="stop-color:#BA141A"/>
	<stop  offset="1" style="stop-color:#ED1C24"/>
</linearGradient>
<path class="st11" d="M259.93,400.77c-15.71,0-28.49-12.78-28.49-28.49s12.78-28.49,28.49-28.49s28.49,12.78,28.49,28.49
	S275.64,400.77,259.93,400.77z"/>
<path class="st2" d="M259.93,399.68c-15.11,0-27.4-12.29-27.4-27.4c0-15.11,12.29-27.4,27.4-27.4s27.4,12.29,27.4,27.4
	C287.33,387.39,275.04,399.68,259.93,399.68z"/>
<path class="st12" d="M365.31,401.71h-51.14c-2.41,0-4.36-1.95-4.36-4.36v-50.14c0-2.41,1.95-4.36,4.36-4.36h51.14
	c2.41,0,4.36,1.95,4.36,4.36v50.14C369.67,399.76,367.72,401.71,365.31,401.71z"/>
<linearGradient id="SVGID_9_" gradientUnits="userSpaceOnUse" x1="339.7415" y1="399.7618" x2="339.7415" y2="344.8031">
	<stop  offset="0" style="stop-color:#007DC5"/>
	<stop  offset="0.5302" style="stop-color:#005387"/>
	<stop  offset="1" style="stop-color:#007DC5"/>
</linearGradient>
<path class="st13" d="M311.76,397.35v-50.14c0-1.33,1.08-2.41,2.41-2.41h51.14c1.33,0,2.41,1.08,2.41,2.41v50.14
	c0,1.33-1.08,2.41-2.41,2.41h-51.14C312.84,399.76,311.76,398.68,311.76,397.35z"/>
<path class="st14" d="M312.59,398.67V345.9c0-0.27,0.22-0.48,0.48-0.48h53.34c0.27,0,0.48,0.22,0.48,0.48v52.77
	c0,0.27-0.22,0.48-0.48,0.48h-53.34C312.8,399.15,312.59,398.93,312.59,398.67z"/>
<path class="st15" d="M293.4,475.34L263,429.59c-3.57-5.38,0.34-12.56,6.79-12.48l60.29,0.77c6.36,0.08,10.11,7.18,6.59,12.48
	l-29.89,44.98C303.61,480.12,296.58,480.12,293.4,475.34z"/>
<linearGradient id="SVGID_10_" gradientUnits="userSpaceOnUse" x1="299.8375" y1="476.9767" x2="299.8375" y2="419.0574">
	<stop  offset="0" style="stop-color:#00A651"/>
	<stop  offset="0.5302" style="stop-color:#007236"/>
	<stop  offset="1" style="stop-color:#00A651"/>
</linearGradient>
<path class="st16" d="M300.09,476.98c-2.07,0-3.92-0.99-5.07-2.72l-30.4-45.75c-1.26-1.9-1.37-4.23-0.3-6.24
	c1.08-2.01,3.08-3.21,5.36-3.21l60.37,0.77c2.26,0.03,4.25,1.24,5.3,3.24c1.06,2,0.94,4.32-0.31,6.21l-29.89,44.98
	C304.01,475.99,302.17,476.98,300.09,476.98z"/>
<path class="st17" d="M300.1,475.24c-1.46,0-2.72-0.66-3.53-1.86l-31.11-46.1c-0.89-1.32-0.97-2.88-0.21-4.28
	c0.76-1.4,2.12-2.2,3.73-2.2l61.76,0.77c1.58,0.02,2.96,0.85,3.69,2.22c0.73,1.37,0.65,2.96-0.22,4.25l-30.59,45.33
	C302.81,474.58,301.56,475.24,300.1,475.24z"/>
<radialGradient id="SVGID_11_" cx="258.4125" cy="342.4212" r="25.224" gradientTransform="matrix(1.001960e-13 0.974 -1.3527 1.391503e-13 722.689 92.7357)" gradientUnits="userSpaceOnUse">
	<stop  offset="0" style="stop-color:#FFFFFF"/>
	<stop  offset="1" style="stop-color:#ED1C24"/>
</radialGradient>
<path class="st18" d="M234.63,362.2c6.13,4.35,14.71,7.06,24.22,7.06c10.37,0,19.65-3.22,25.83-8.29
	c-4.3-9.38-13.78-15.92-24.76-15.92C248.46,345.05,238.64,352.16,234.63,362.2z"/>
<radialGradient id="SVGID_12_" cx="258.6779" cy="399.2133" r="27.1328" gradientTransform="matrix(1.001960e-13 -0.974 1.3719 1.411212e-13 -287.917 651.7122)" gradientUnits="userSpaceOnUse">
	<stop  offset="0" style="stop-color:#BA141A"/>
	<stop  offset="1" style="stop-color:#ED1C24"/>
</radialGradient>
<path class="st19" d="M258.85,373.12c-9.84,0-18.69,2.9-24.85,7.51c3.53,10.94,13.81,18.88,25.91,18.88
	c11.6,0,21.52-7.29,25.44-17.53C279.18,376.59,269.61,373.12,258.85,373.12z"/>
<radialGradient id="SVGID_13_" cx="339.7888" cy="341.7797" r="22.7927" gradientTransform="matrix(1.045192e-13 1.025 -1.4466 1.501127e-13 833.9685 -2.8925)" gradientUnits="userSpaceOnUse">
	<stop  offset="0" style="stop-color:#FFFFFF"/>
	<stop  offset="1" style="stop-color:#007DC5"/>
</radialGradient>
<path class="st20" d="M364.29,345.67H315.2c-1.28,0-2.31,1.05-2.31,2.33v12.76c6.21,5.17,15.56,8.46,26.02,8.46
	c11.46,0,21.57-3.95,27.7-9.98v-11.23C366.6,346.72,365.56,345.67,364.29,345.67z"/>
<radialGradient id="SVGID_14_" cx="339.7888" cy="393.6499" r="24.5949" gradientTransform="matrix(1.045192e-13 -1.025 1.4778 1.533535e-13 -242.1907 746.815)" gradientUnits="userSpaceOnUse">
	<stop  offset="0" style="stop-color:#005E96"/>
	<stop  offset="1" style="stop-color:#007DC5"/>
</radialGradient>
<path class="st21" d="M338.9,373.13c-10.46,0-19.81,3.29-26.02,8.46v14.97c0,1.29,1.04,2.33,2.31,2.33h49.09
	c1.28,0,2.31-1.05,2.31-2.33v-13.45C360.48,377.08,350.36,373.13,338.9,373.13z"/>
<radialGradient id="SVGID_15_" cx="298.7245" cy="420.3195" r="20.1268" gradientTransform="matrix(1.025427e-13 0.9816 -1.6402 1.661430e-13 988.5853 127.3204)" gradientUnits="userSpaceOnUse">
	<stop  offset="0" style="stop-color:#FFFFFF"/>
	<stop  offset="1" style="stop-color:#00A651"/>
</radialGradient>
<path class="st22" d="M299.1,441.08c16.78,0,30.75-8.14,33.77-18.9c-1-0.78-2.24-1.22-3.59-1.24l-58.88-0.74
	c-2.01,0-3.79,0.95-4.89,2.56C268.86,433.24,282.62,441.08,299.1,441.08z"/>
<radialGradient id="SVGID_16_" cx="300.5062" cy="476.3715" r="30.9601" gradientTransform="matrix(9.535509e-14 -0.9866 1.2279 1.344360e-13 -285.3894 772.3577)" gradientUnits="userSpaceOnUse">
	<stop  offset="0" style="stop-color:#007F3E"/>
	<stop  offset="1" style="stop-color:#00A651"/>
</radialGradient>
<path class="st23" d="M299.16,444.8c-6.98,0-13.43,1.64-18.69,4.41l14.98,23.99c1.04,1.67,2.72,2.62,4.6,2.62s3.56-0.96,4.6-2.62
	l14.52-23.26C313.69,446.73,306.73,444.8,299.16,444.8z"/>
</svg>
